<?xml version="1.0" encoding="UTF-8" standalone="no"?>
<!DOCTYPE svg PUBLIC "-//W3C//DTD SVG 20010904//EN"
"http://www.w3.org/TR/2001/REC-SVG-20010904/DTD/svg10.dtd">
<!-- Created with Inkscape (http://www.inkscape.org/) -->
<svg
   id="svg5040"
   sodipodi:version="0.32"
   inkscape:version="0.37"
   width="210mm"
   height="297mm"
   sodipodi:docbase="/home/daniel/trac/doc"
   sodipodi:docname="trac_logo.svg"
   xmlns="http://www.w3.org/2000/svg"
   xmlns:inkscape="http://www.inkscape.org/namespaces/inkscape"
   xmlns:sodipodi="http://sodipodi.sourceforge.net/DTD/sodipodi-0.dtd"
   xmlns:xml="http://www.w3.org/XML/1998/namespace"
   xmlns:xlink="http://www.w3.org/1999/xlink">
  <defs
     id="defs5042" />
  <sodipodi:namedview
     id="base"
     pagecolor="#ffffff"
     bordercolor="#666666"
     borderopacity="1.0"
     inkscape:pageopacity="0.0"
     inkscape:pageshadow="2"
     inkscape:zoom="0.86831672"
     inkscape:cx="305.259524"
     inkscape:cy="417.849473"
     inkscape:window-width="640"
     inkscape:window-height="621"
     inkscape:window-x="275"
     inkscape:window-y="112" />
  <path
     transform="translate(-25.91220,69.09921)"
     style="font-size:128;font-weight:normal;stroke-width:3pt;font-family:Zurich Blk BT;"
     d="M 534.39487 432.01199 C 534.14487 440.05366 531.01987 446.44949 525.01987 451.19949 C 519.06153 455.90783 511.06153 458.26199 501.01987 458.26199 C 490.26987 458.26199 481.89487 455.24116 475.89487 449.19949 C 469.93653 443.15783 466.95737 434.69949 466.95737 423.82449 C 466.95737 413.36616 469.9782 405.26199 476.01987 399.51199 C 482.1032 393.76199 490.68653 390.88699 501.76987 390.88699 C 511.68653 390.88699 519.45737 393.03283 525.08237 397.32449 C 530.74903 401.61616 533.64487 407.53283 533.76987 415.07449 L 510.08237 415.07449 C 510.08237 411.49116 509.3532 408.76199 507.89487 406.88699 C 506.43653 405.01199 504.31153 404.07449 501.51987 404.07449 C 498.1032 404.07449 495.5407 405.74116 493.83237 409.07449 C 492.12403 412.36616 491.26987 417.28283 491.26987 423.82449 C 491.26987 431.11616 492.08237 436.38699 493.70737 439.63699 C 495.33237 442.88699 497.93653 444.51199 501.51987 444.51199 C 504.3532 444.51199 506.4782 443.47033 507.89487 441.38699 C 509.3532 439.30366 510.08237 436.17866 510.08237 432.01199 L 534.39487 432.01199 z M 431.33237 426.63699 C 430.99903 426.63699 430.49903 426.61616 429.83237 426.57449 C 429.1657 426.53283 428.64487 426.51199 428.26987 426.51199 C 422.76987 426.51199 418.62403 427.34533 415.83237 429.01199 C 413.0407 430.63699 411.64487 433.07449 411.64487 436.32449 C 411.64487 438.78283 412.45737 440.78283 414.08237 442.32449 C 415.74903 443.86616 417.87403 444.63699 420.45737 444.63699 C 424.12403 444.63699 426.87403 443.38699 428.70737 440.88699 C 430.58237 438.34533 431.51987 434.57449 431.51987 429.57449 C 431.51987 428.78283 431.49903 428.19949 431.45737 427.82449 C 431.45737 427.40783 431.4157 427.01199 431.33237 426.63699 z M 432.39487 456.69949 C 432.26987 455.74116 432.14487 454.53283 432.01987 453.07449 C 431.89487 451.61616 431.74903 449.88699 431.58237 447.88699 C 429.74903 451.17866 427.01987 453.72033 423.39487 455.51199 C 419.76987 457.26199 415.51987 458.13699 410.64487 458.13699 C 403.9782 458.13699 398.62403 456.28283 394.58237 452.57449 C 390.58237 448.86616 388.58237 443.97033 388.58237 437.88699 C 388.58237 430.42866 391.62403 424.78283 397.70737 420.94949 C 403.83237 417.11616 412.83237 415.19949 424.70737 415.19949 C 426.49903 415.19949 427.8532 415.22033 428.76987 415.26199 C 429.68653 415.26199 430.5407 415.28283 431.33237 415.32449 L 431.33237 411.63699 C 431.33237 408.59533 430.64487 406.24116 429.26987 404.57449 C 427.93653 402.90783 426.0407 402.07449 423.58237 402.07449 C 421.24903 402.07449 419.33237 402.86616 417.83237 404.44949 C 416.37403 405.99116 415.64487 408.01199 415.64487 410.51199 L 415.64487 411.63699 L 392.95737 411.63699 C 393.0407 404.63699 395.62403 399.42866 400.70737 396.01199 C 405.83237 392.59533 413.58237 390.88699 423.95737 390.88699 C 434.9157 390.88699 442.68653 392.76199 447.26987 396.51199 C 451.8532 400.26199 454.14487 406.67866 454.14487 415.76199 L 454.14487 442.13699 C 454.14487 445.38699 454.20737 448.15783 454.33237 450.44949 C 454.45737 452.69949 454.64487 454.78283 454.89487 456.69949 L 432.39487 456.69949 z M 336.76987 456.69949 L 336.76987 406.38699 C 336.76987 404.88699 336.68653 403.03283 336.51987 400.82449 C 336.3532 398.61616 336.1032 395.82449 335.76987 392.44949 L 359.70737 392.44949 L 359.70737 405.38699 C 361.45737 400.88699 364.06153 397.55366 367.51987 395.38699 C 370.9782 393.17866 375.37403 392.07449 380.70737 392.07449 L 382.45737 392.07449 L 382.45737 412.51199 C 381.58237 412.42866 380.6657 412.36616 379.70737 412.32449 C 378.7907 412.28283 377.5407 412.26199 375.95737 412.26199 C 371.24903 412.26199 367.4782 413.63699 364.64487 416.38699 C 361.8532 419.09533 360.45737 422.76199 360.45737 427.38699 L 360.45737 456.69949 L 336.76987 456.69949 z M 324.33237 456.69949 C 321.33237 457.11616 318.4782 457.42866 315.76987 457.63699 C 313.1032 457.84533 310.62403 457.94949 308.33237 457.94949 C 300.7907 457.94949 295.20737 456.44949 291.58237 453.44949 C 287.99903 450.44949 286.20737 445.82449 286.20737 439.57449 L 286.20737 407.82449 L 274.20737 407.82449 L 274.20737 392.44949 L 286.20737 392.44949 L 286.20737 382.44949 L 309.39487 372.76199 L 309.39487 392.44949 L 324.33237 392.44949 L 324.33237 407.82449 L 309.01987 407.82449 L 309.01987 434.94949 C 309.01987 437.57449 309.68653 439.44949 311.01987 440.57449 C 312.3532 441.69949 314.58237 442.26199 317.70737 442.26199 C 318.37403 442.26199 319.4782 442.19949 321.01987 442.07449 C 322.6032 441.94949 323.70737 441.86616 324.33237 441.82449 L 324.33237 456.69949 z "
     id="path651" />
  <g
     id="g4986"
     transform="matrix(1.196597,-0.336417,0.336417,1.196597,50.36942,430.3954)"
     style="font-size:12;fill:#b70e0b;stroke-width:1.25;">
    <path
       style="stroke:none;fill:#b70e0b;fill-opacity:1;stroke-opacity:1;stroke-width:1.25;stroke-dasharray:none;"
       d="M 1.64865 89.7548C 4.91705 96.9453 11.692 104.967 17.5751 104.313C 23.4582 103.66 29.9951 88.625 28.6877 86.0103C 27.3803 83.3956 22.0302 63.6063 13.4753 63.8444C 4.92047 64.0824 -1.61975 82.5643 1.64865 89.7548z"
       id="path4987" />
    <path
       style="stroke:none;fill:#b70e0b;fill-opacity:1;stroke-opacity:1;stroke-width:1.25;stroke-dasharray:none;"
       d="M 15.7106 47.1279C 18.2661 56.4572 29.6749 70.5387 39.8355 69.5286C 49.996 68.5184 47.2651 54.1965 44.532 44.4528C 44.1372 43.0455 45.2437 37.9009 43.2081 32.6565C 41.1725 27.4121 36.8016 23.1465 32.5276 23.3562C 20.4083 23.9507 12.4422 39.9374 15.7106 47.1279z"
       id="path4988" />
    <path
       style="stroke:none;fill:#b70e0b;fill-opacity:1;stroke-opacity:1;stroke-width:1.25;stroke-dasharray:none;"
       d="M 57.772 55.3264C 61.0404 62.5168 60.3298 68.7564 67.9952 70.5979C 75.6606 72.4394 86.5379 56.0765 88.3756 48.7302C 90.2132 41.3839 87.8703 22.9685 74.5891 22.9998C 61.3078 23.031 56.6424 37.7988 57.772 55.3264z"
       id="path4989" />
    <path
       style="stroke:none;fill:#b70e0b;fill-opacity:1;stroke-opacity:1;stroke-width:1.25;stroke-dasharray:none;"
       d="M 81.2979 86.6942C 80.6453 94.2411 84.9251 100.837 94.0163 100.896C 103.107 100.956 111.427 79.8611 110.119 77.2464C 108.812 74.6317 108.096 62.6844 99.5407 62.9224C 90.9859 63.1605 80.8811 76.6521 81.2979 86.6942z"
       id="path4990" />
    <path
       style="stroke:none;fill:#b70e0b;fill-opacity:1;stroke-opacity:1;stroke-width:1.25;stroke-dasharray:none;"
       d="M 23.909 124.835C 34.0893 132.6 41.4315 121.82 55.0637 121.878C 68.696 121.936 77.9246 130.693 84.7485 120.501C 93.4945 107.438 81.3489 106.352 73.8862 97.3686C 66.4235 88.3849 70.8498 81.7448 55.582 81.1674C 39.1205 80.5449 42.5958 98.1702 35.0228 102.132C 24.0268 107.885 17.6289 120.044 23.909 124.835z"
       id="path4991" />
    <path
       style="stroke:none;fill:#b70e0b;fill-opacity:1;stroke-opacity:1;stroke-width:1.25;stroke-dasharray:none;"
       d="M 0.0187378 54.9699C 0.243256 57.9677 4.22418 61.9363 6.97052 61.544C 9.71686 61.1517 10.3999 58.3234 10.2253 54.576C 10.0507 50.8287 5.83322 44.9805 3.7262 45.2186C 1.61917 45.4566 -0.20578 51.9721 0.0187378 54.9699z"
       id="path4992" />
    <path
       style="stroke:none;fill:#b70e0b;fill-opacity:1;stroke-opacity:1;stroke-width:1.25;stroke-dasharray:none;"
       d="M 23.956 13.7574C 24.1805 16.7552 24.1615 21.9738 28.4078 21.5815C 32.6541 21.1891 34.5872 18.8609 34.4126 15.1135C 34.2379 11.3661 31.0205 5.01801 28.9135 5.25604C 26.8065 5.49408 23.7315 10.7596 23.956 13.7574z"
       id="path4993" />
    <path
       style="stroke:none;fill:#b70e0b;fill-opacity:1;stroke-opacity:1;stroke-width:1.25;stroke-dasharray:none;"
       d="M 71.206 10.7574C 71.4305 13.7552 75.1615 19.7238 77.9078 19.3315C 80.6541 18.9391 83.3372 14.1109 83.1626 10.3635C 82.9879 6.61615 79.2705 -0.231995 77.1635 0.00604248C 75.0565 0.24408 70.9815 7.75958 71.206 10.7574z"
       id="path4994" />
    <path
       style="stroke:none;fill:#b70e0b;fill-opacity:1;stroke-opacity:1;stroke-width:1.25;stroke-dasharray:none;"
       d="M 98.456 55.0074C 98.6805 58.0052 99.6615 61.2238 102.408 60.8315C 105.154 60.4391 108.587 58.8609 108.413 55.1135C 108.238 51.3661 107.771 42.768 105.663 43.006C 103.556 43.2441 98.2315 52.0096 98.456 55.0074z"
       id="path4995" />
  </g>
  <path
     transform="matrix(1.065977,0.000000,0.000000,1.065977,-25.91220,69.09921)"
     style="font-size:32;font-style:italic;font-weight:normal;fill-opacity:0.6;stroke-width:3pt;font-family:Zurich Lt BT;"
     d="M 652.09506 461.00232 L 652.92319 458.12732 L 655.48569 458.12732 L 654.68881 461.00232 L 652.09506 461.00232 z M 643.07944 446.09607 C 642.1211 446.09607 641.2461 446.30961 640.45444 446.73669 C 639.67319 447.16378 638.96485 447.81482 638.32944 448.68982 C 637.65235 449.63774 637.1211 450.71065 636.73569 451.90857 C 636.35027 453.09607 636.15756 454.27315 636.15756 455.43982 C 636.15756 456.64815 636.47006 457.58044 637.09506 458.23669 C 637.72006 458.88253 638.6159 459.20544 639.78256 459.20544 C 641.6159 459.20544 643.20444 458.28878 644.54819 456.45544 C 645.89194 454.61169 646.56381 452.44503 646.56381 449.95544 C 646.56381 448.72628 646.25652 447.77836 645.64194 447.11169 C 645.03777 446.43461 644.1836 446.09607 643.07944 446.09607 z M 647.45444 447.87732 L 648.42319 444.93982 L 650.53256 444.93982 C 650.22006 445.83565 649.95965 446.59086 649.75131 447.20544 C 649.5534 447.80961 649.39715 448.31482 649.28256 448.72107 L 646.07944 459.87732 C 645.31902 462.5544 644.29819 464.46065 643.01694 465.59607 C 641.73569 466.73149 640.00652 467.29919 637.82944 467.29919 C 635.88152 467.29919 634.4284 466.92419 633.47006 466.17419 C 632.51173 465.42419 632.03256 464.28878 632.03256 462.76794 L 632.03256 462.70544 L 634.14194 462.70544 L 634.14194 462.95544 C 634.14194 463.82003 634.45444 464.4919 635.07944 464.97107 C 635.71485 465.46065 636.60027 465.70544 637.73569 465.70544 C 639.42319 465.70544 640.7409 465.27315 641.68881 464.40857 C 642.64715 463.5544 643.44923 461.97107 644.09506 459.65857 L 644.54819 458.15857 C 643.76694 459.0544 642.91798 459.72107 642.00131 460.15857 C 641.09506 460.59607 640.10548 460.81482 639.03256 460.81482 C 637.51173 460.81482 636.3086 460.33565 635.42319 459.37732 C 634.54819 458.41899 634.11069 457.10649 634.11069 455.43982 C 634.11069 454.1169 634.35548 452.7419 634.84506 451.31482 C 635.33465 449.87732 635.97527 448.66899 636.76694 447.68982 C 637.52735 446.73149 638.40235 445.99711 639.39194 445.48669 C 640.39194 444.97628 641.44923 444.72107 642.56381 444.72107 C 643.7409 444.72107 644.73569 444.98669 645.54819 445.51794 C 646.3711 446.03878 647.00652 446.82524 647.45444 447.87732 z M 614.68881 461.00232 L 617.86069 449.92419 C 618.17319 448.88253 618.42319 447.98669 618.61069 447.23669 C 618.8086 446.47628 618.9961 445.71065 619.17319 444.93982 L 621.34506 444.93982 L 620.51694 447.78357 C 621.4961 446.7419 622.47006 445.97628 623.43881 445.48669 C 624.40756 444.99711 625.4284 444.75232 626.50131 444.75232 C 627.77215 444.75232 628.78256 445.0544 629.53256 445.65857 C 630.28256 446.26274 630.65756 447.08044 630.65756 448.11169 C 630.65756 448.40336 630.62631 448.73149 630.56381 449.09607 C 630.50131 449.45024 630.40756 449.85649 630.28256 450.31482 L 627.20444 461.00232 L 625.15756 461.00232 L 628.20444 450.43982 C 628.3086 450.09607 628.38673 449.77836 628.43881 449.48669 C 628.4909 449.19503 628.51694 448.93982 628.51694 448.72107 C 628.51694 447.98149 628.28777 447.41378 627.82944 447.01794 C 627.3711 446.61169 626.72527 446.40857 625.89194 446.40857 C 624.26694 446.40857 622.86069 447.00753 621.67319 448.20544 C 620.4961 449.39294 619.56902 451.15336 618.89194 453.48669 L 616.73569 461.00232 L 614.68881 461.00232 z M 612.64194 440.39294 L 613.37631 437.95544 L 615.70444 437.95544 L 615.00131 440.39294 L 612.64194 440.39294 z M 606.90756 461.00232 L 611.51694 444.93982 L 613.56381 444.93982 L 608.95444 461.00232 L 606.90756 461.00232 z M 594.01694 456.65857 C 594.00652 456.72107 593.9961 456.78878 593.98569 456.86169 C 593.98569 456.93461 593.98569 457.03357 593.98569 457.15857 C 593.98569 458.01274 594.28256 458.66899 594.87631 459.12732 C 595.48048 459.58565 596.35027 459.81482 597.48569 459.81482 C 598.88152 459.81482 599.9909 459.51274 600.81381 458.90857 C 601.63673 458.3044 602.04819 457.49711 602.04819 456.48669 C 602.04819 455.90336 601.89715 455.43982 601.59506 455.09607 C 601.3034 454.75232 600.6784 454.40857 599.72006 454.06482 L 597.64194 453.28357 C 596.50652 452.87732 595.6784 452.3669 595.15756 451.75232 C 594.63673 451.12732 594.37631 450.36169 594.37631 449.45544 C 594.37631 448.01794 594.94923 446.84086 596.09506 445.92419 C 597.25131 445.00753 598.75652 444.54919 600.61069 444.54919 C 602.20444 444.54919 603.46485 444.89815 604.39194 445.59607 C 605.32944 446.29399 605.79819 447.23669 605.79819 448.42419 C 605.79819 448.46586 605.79298 448.53357 605.78256 448.62732 C 605.77215 448.71065 605.76694 448.77315 605.76694 448.81482 L 603.68881 448.81482 L 603.68881 448.48669 C 603.68881 447.70544 603.41277 447.10649 602.86069 446.68982 C 602.31902 446.27315 601.53777 446.06482 600.51694 446.06482 C 599.29819 446.06482 598.31381 446.35128 597.56381 446.92419 C 596.82423 447.48669 596.45444 448.23149 596.45444 449.15857 C 596.45444 449.73149 596.60027 450.19503 596.89194 450.54919 C 597.19402 450.89294 597.83985 451.25232 598.82944 451.62732 L 601.00131 452.45544 C 602.13673 452.88253 602.95444 453.38774 603.45444 453.97107 C 603.95444 454.5544 604.20444 455.28878 604.20444 456.17419 C 604.20444 457.67419 603.56902 458.91899 602.29819 459.90857 C 601.03777 460.89815 599.40756 461.39294 597.40756 461.39294 C 595.66798 461.39294 594.3034 461.01794 593.31381 460.26794 C 592.33465 459.51794 591.84506 458.47107 591.84506 457.12732 C 591.84506 457.07524 591.85027 456.99711 591.86069 456.89294 C 591.8711 456.78878 591.87631 456.70544 591.87631 456.64294 L 594.01694 456.65857 z M 579.72006 456.65857 C 579.70965 456.72107 579.69923 456.78878 579.68881 456.86169 C 579.68881 456.93461 579.68881 457.03357 579.68881 457.15857 C 579.68881 458.01274 579.98569 458.66899 580.57944 459.12732 C 581.1836 459.58565 582.0534 459.81482 583.18881 459.81482 C 584.58465 459.81482 585.69402 459.51274 586.51694 458.90857 C 587.33985 458.3044 587.75131 457.49711 587.75131 456.48669 C 587.75131 455.90336 587.60027 455.43982 587.29819 455.09607 C 587.00652 454.75232 586.38152 454.40857 585.42319 454.06482 L 583.34506 453.28357 C 582.20965 452.87732 581.38152 452.3669 580.86069 451.75232 C 580.33985 451.12732 580.07944 450.36169 580.07944 449.45544 C 580.07944 448.01794 580.65235 446.84086 581.79819 445.92419 C 582.95444 445.00753 584.45965 444.54919 586.31381 444.54919 C 587.90756 444.54919 589.16798 444.89815 590.09506 445.59607 C 591.03256 446.29399 591.50131 447.23669 591.50131 448.42419 C 591.50131 448.46586 591.4961 448.53357 591.48569 448.62732 C 591.47527 448.71065 591.47006 448.77315 591.47006 448.81482 L 589.39194 448.81482 L 589.39194 448.48669 C 589.39194 447.70544 589.1159 447.10649 588.56381 446.68982 C 588.02215 446.27315 587.2409 446.06482 586.22006 446.06482 C 585.00131 446.06482 584.01694 446.35128 583.26694 446.92419 C 582.52735 447.48669 582.15756 448.23149 582.15756 449.15857 C 582.15756 449.73149 582.3034 450.19503 582.59506 450.54919 C 582.89715 450.89294 583.54298 451.25232 584.53256 451.62732 L 586.70444 452.45544 C 587.83985 452.88253 588.65756 453.38774 589.15756 453.97107 C 589.65756 454.5544 589.90756 455.28878 589.90756 456.17419 C 589.90756 457.67419 589.27215 458.91899 588.00131 459.90857 C 586.7409 460.89815 585.11069 461.39294 583.11069 461.39294 C 581.3711 461.39294 580.00652 461.01794 579.01694 460.26794 C 578.03777 459.51794 577.54819 458.47107 577.54819 457.12732 C 577.54819 457.07524 577.5534 456.99711 577.56381 456.89294 C 577.57423 456.78878 577.57944 456.70544 577.57944 456.64294 L 579.72006 456.65857 z M 576.26694 440.39294 L 577.00131 437.95544 L 579.32944 437.95544 L 578.62631 440.39294 L 576.26694 440.39294 z M 570.53256 461.00232 L 575.14194 444.93982 L 577.18881 444.93982 L 572.57944 461.00232 L 570.53256 461.00232 z M 557.79819 448.00232 C 558.81902 446.90857 559.84506 446.09607 560.87631 445.56482 C 561.91798 445.02315 562.9961 444.75232 564.11069 444.75232 C 565.38152 444.75232 566.39194 445.0544 567.14194 445.65857 C 567.89194 446.26274 568.26694 447.08044 568.26694 448.11169 C 568.26694 448.40336 568.23569 448.73149 568.17319 449.09607 C 568.11069 449.45024 568.01173 449.85649 567.87631 450.31482 L 564.81381 461.00232 L 562.79819 461.00232 L 565.79819 450.43982 C 565.90235 450.09607 565.98048 449.77836 566.03256 449.48669 C 566.09506 449.19503 566.12631 448.93982 566.12631 448.72107 C 566.12631 447.98149 565.90235 447.41378 565.45444 447.01794 C 565.00652 446.61169 564.3659 446.40857 563.53256 446.40857 C 561.90756 446.40857 560.50131 447.00753 559.31381 448.20544 C 558.12631 449.39294 557.19402 451.15336 556.51694 453.48669 L 554.34506 461.00232 L 552.29819 461.00232 L 555.34506 450.43982 C 555.44923 450.09607 555.52735 449.77836 555.57944 449.48669 C 555.63152 449.19503 555.65756 448.93982 555.65756 448.72107 C 555.65756 447.98149 555.4284 447.41378 554.97006 447.01794 C 554.51173 446.61169 553.8659 446.40857 553.03256 446.40857 C 551.40756 446.40857 550.00131 447.00753 548.81381 448.20544 C 547.63673 449.39294 546.70965 451.15336 546.03256 453.48669 L 543.87631 461.00232 L 541.82944 461.00232 L 545.00131 449.92419 C 545.31381 448.88253 545.56381 447.98669 545.75131 447.23669 C 545.94923 446.47628 546.13673 445.71065 546.31381 444.93982 L 548.48569 444.93982 L 547.65756 447.78357 C 548.63673 446.7419 549.60548 445.97628 550.56381 445.48669 C 551.53256 444.99711 552.5586 444.75232 553.64194 444.75232 C 554.8711 444.75232 555.86069 445.04919 556.61069 445.64294 C 557.3711 446.23669 557.76694 447.02315 557.79819 448.00232 z M 522.15756 461.00232 L 525.32944 449.92419 C 525.3711 449.76794 525.44402 449.51274 525.54819 449.15857 C 526.02735 447.47107 526.3711 446.06482 526.57944 444.93982 L 528.62631 444.93982 L 528.04819 447.62732 C 528.78777 446.68982 529.56381 445.98669 530.37631 445.51794 C 531.19923 445.04919 532.04298 444.81482 532.90756 444.81482 C 533.1784 444.81482 533.60027 444.87211 534.17319 444.98669 C 534.21485 444.99711 534.2409 445.00232 534.25131 445.00232 L 533.75131 446.76794 C 533.69923 446.75753 533.63152 446.74711 533.54819 446.73669 C 533.04819 446.66378 532.69923 446.62732 532.50131 446.62732 C 531.06381 446.62732 529.85027 447.17419 528.86069 448.26794 C 527.8711 449.36169 527.03777 451.10128 526.36069 453.48669 L 524.20444 461.00232 L 522.15756 461.00232 z M 507.51694 453.25232 C 507.40235 453.70024 507.31902 454.11169 507.26694 454.48669 C 507.21485 454.85128 507.18881 455.21065 507.18881 455.56482 C 507.18881 456.8044 507.58985 457.8044 508.39194 458.56482 C 509.19402 459.31482 510.26694 459.68982 511.61069 459.68982 C 512.7461 459.68982 513.72006 459.40336 514.53256 458.83044 C 515.34506 458.24711 516.00131 457.38253 516.50131 456.23669 L 518.54819 456.23669 C 518.07944 457.84086 517.19923 459.09607 515.90756 460.00232 C 514.6159 460.90857 513.0534 461.36169 511.22006 461.36169 C 509.2409 461.36169 507.72006 460.85649 506.65756 459.84607 C 505.60548 458.82524 505.07944 457.3669 505.07944 455.47107 C 505.07944 454.0544 505.36069 452.61169 505.92319 451.14294 C 506.4961 449.67419 507.26173 448.40857 508.22006 447.34607 C 509.04298 446.4294 509.98048 445.73669 511.03256 445.26794 C 512.08465 444.78878 513.20444 444.54919 514.39194 444.54919 C 516.20444 444.54919 517.60548 445.02315 518.59506 445.97107 C 519.58465 446.90857 520.07944 448.23669 520.07944 449.95544 C 520.07944 450.41378 520.04298 450.91378 519.97006 451.45544 C 519.89715 451.99711 519.78777 452.59607 519.64194 453.25232 L 507.51694 453.25232 z M 507.92319 451.75232 L 517.87631 451.75232 C 517.93881 451.34607 517.98569 450.98669 518.01694 450.67419 C 518.04819 450.35128 518.06381 450.05961 518.06381 449.79919 C 518.06381 448.64294 517.72527 447.73669 517.04819 447.08044 C 516.38152 446.42419 515.45444 446.09607 514.26694 446.09607 C 512.85027 446.09607 511.56902 446.60649 510.42319 447.62732 C 509.27735 448.64815 508.44402 450.02315 507.92319 451.75232 z M 495.54819 446.09607 C 494.58985 446.09607 493.71485 446.30961 492.92319 446.73669 C 492.14194 447.16378 491.4336 447.81482 490.79819 448.68982 C 490.1211 449.63774 489.58985 450.71065 489.20444 451.90857 C 488.81902 453.09607 488.62631 454.27315 488.62631 455.43982 C 488.62631 456.64815 488.93881 457.58044 489.56381 458.23669 C 490.18881 458.88253 491.08465 459.20544 492.25131 459.20544 C 494.08465 459.20544 495.67319 458.28878 497.01694 456.45544 C 498.36069 454.61169 499.03256 452.44503 499.03256 449.95544 C 499.03256 448.72628 498.72527 447.77836 498.11069 447.11169 C 497.50652 446.43461 496.65235 446.09607 495.54819 446.09607 z M 499.92319 447.87732 L 500.89194 444.93982 L 503.00131 444.93982 C 502.68881 445.83565 502.4284 446.59086 502.22006 447.20544 C 502.02215 447.80961 501.8659 448.31482 501.75131 448.72107 L 498.54819 459.87732 C 497.78777 462.5544 496.76694 464.46065 495.48569 465.59607 C 494.20444 466.73149 492.47527 467.29919 490.29819 467.29919 C 488.35027 467.29919 486.89715 466.92419 485.93881 466.17419 C 484.98048 465.42419 484.50131 464.28878 484.50131 462.76794 L 484.50131 462.70544 L 486.61069 462.70544 L 486.61069 462.95544 C 486.61069 463.82003 486.92319 464.4919 487.54819 464.97107 C 488.1836 465.46065 489.06902 465.70544 490.20444 465.70544 C 491.89194 465.70544 493.20965 465.27315 494.15756 464.40857 C 495.1159 463.5544 495.91798 461.97107 496.56381 459.65857 L 497.01694 458.15857 C 496.23569 459.0544 495.38673 459.72107 494.47006 460.15857 C 493.56381 460.59607 492.57423 460.81482 491.50131 460.81482 C 489.98048 460.81482 488.77735 460.33565 487.89194 459.37732 C 487.01694 458.41899 486.57944 457.10649 486.57944 455.43982 C 486.57944 454.1169 486.82423 452.7419 487.31381 451.31482 C 487.8034 449.87732 488.44402 448.66899 489.23569 447.68982 C 489.9961 446.73149 490.8711 445.99711 491.86069 445.48669 C 492.86069 444.97628 493.91798 444.72107 495.03256 444.72107 C 496.20965 444.72107 497.20444 444.98669 498.01694 445.51794 C 498.83985 446.03878 499.47527 446.82524 499.92319 447.87732 z M 467.15756 461.00232 L 470.32944 449.92419 C 470.64194 448.88253 470.89194 447.98669 471.07944 447.23669 C 471.27735 446.47628 471.46485 445.71065 471.64194 444.93982 L 473.81381 444.93982 L 472.98569 447.78357 C 473.96485 446.7419 474.93881 445.97628 475.90756 445.48669 C 476.87631 444.99711 477.89715 444.75232 478.97006 444.75232 C 480.2409 444.75232 481.25131 445.0544 482.00131 445.65857 C 482.75131 446.26274 483.12631 447.08044 483.12631 448.11169 C 483.12631 448.40336 483.09506 448.73149 483.03256 449.09607 C 482.97006 449.45024 482.87631 449.85649 482.75131 450.31482 L 479.67319 461.00232 L 477.62631 461.00232 L 480.67319 450.43982 C 480.77735 450.09607 480.85548 449.77836 480.90756 449.48669 C 480.95965 449.19503 480.98569 448.93982 480.98569 448.72107 C 480.98569 447.98149 480.75652 447.41378 480.29819 447.01794 C 479.83985 446.61169 479.19402 446.40857 478.36069 446.40857 C 476.73569 446.40857 475.32944 447.00753 474.14194 448.20544 C 472.96485 449.39294 472.03777 451.15336 471.36069 453.48669 L 469.20444 461.00232 L 467.15756 461.00232 z M 452.12631 455.56482 C 452.12631 456.88774 452.46485 457.90857 453.14194 458.62732 C 453.81902 459.33565 454.78256 459.68982 456.03256 459.68982 C 457.8659 459.68982 459.47006 458.76274 460.84506 456.90857 C 462.22006 455.04399 462.90756 452.90857 462.90756 450.50232 C 462.90756 449.13774 462.56381 448.08044 461.87631 447.33044 C 461.19923 446.57003 460.2409 446.18982 459.00131 446.18982 C 457.15756 446.18982 455.54819 447.13253 454.17319 449.01794 C 452.8086 450.90336 452.12631 453.08565 452.12631 455.56482 z M 455.90756 461.36169 C 454.04298 461.36169 452.59506 460.84607 451.56381 459.81482 C 450.53256 458.78357 450.01694 457.33565 450.01694 455.47107 C 450.01694 454.22107 450.2461 452.92419 450.70444 451.58044 C 451.17319 450.22628 451.8086 449.01274 452.61069 447.93982 C 453.4336 446.82524 454.40756 445.97628 455.53256 445.39294 C 456.65756 444.80961 457.88152 444.51794 459.20444 444.51794 C 461.03777 444.51794 462.46485 445.04399 463.48569 446.09607 C 464.50652 447.13774 465.01694 448.59607 465.01694 450.47107 C 465.01694 451.76274 464.77735 453.10128 464.29819 454.48669 C 463.82944 455.87211 463.19402 457.07524 462.39194 458.09607 C 461.54819 459.1794 460.58465 459.99711 459.50131 460.54919 C 458.41798 461.09086 457.22006 461.36169 455.90756 461.36169 z M 441.17319 461.00232 L 447.76694 437.95544 L 449.81381 437.95544 L 443.22006 461.00232 L 441.17319 461.00232 z M 417.28256 455.56482 C 417.28256 456.88774 417.6211 457.90857 418.29819 458.62732 C 418.97527 459.33565 419.93881 459.68982 421.18881 459.68982 C 423.02215 459.68982 424.62631 458.76274 426.00131 456.90857 C 427.37631 455.04399 428.06381 452.90857 428.06381 450.50232 C 428.06381 449.13774 427.72006 448.08044 427.03256 447.33044 C 426.35548 446.57003 425.39715 446.18982 424.15756 446.18982 C 422.31381 446.18982 420.70444 447.13253 419.32944 449.01794 C 417.96485 450.90336 417.28256 453.08565 417.28256 455.56482 z M 421.06381 461.36169 C 419.19923 461.36169 417.75131 460.84607 416.72006 459.81482 C 415.68881 458.78357 415.17319 457.33565 415.17319 455.47107 C 415.17319 454.22107 415.40235 452.92419 415.86069 451.58044 C 416.32944 450.22628 416.96485 449.01274 417.76694 447.93982 C 418.58985 446.82524 419.56381 445.97628 420.68881 445.39294 C 421.81381 444.80961 423.03777 444.51794 424.36069 444.51794 C 426.19402 444.51794 427.6211 445.04399 428.64194 446.09607 C 429.66277 447.13774 430.17319 448.59607 430.17319 450.47107 C 430.17319 451.76274 429.9336 453.10128 429.45444 454.48669 C 428.98569 455.87211 428.35027 457.07524 427.54819 458.09607 C 426.70444 459.1794 425.7409 459.99711 424.65756 460.54919 C 423.57423 461.09086 422.37631 461.36169 421.06381 461.36169 z M 390.98569 461.00232 L 397.61069 437.95544 L 399.93881 437.95544 L 405.70444 455.01794 C 405.94402 455.69503 406.14715 456.37211 406.31381 457.04919 C 406.48048 457.71586 406.6159 458.39294 406.72006 459.08044 C 406.87631 458.13253 407.15756 456.9294 407.56381 455.47107 C 407.60548 455.3044 407.63673 455.18461 407.65756 455.11169 L 412.57944 437.95544 L 414.62631 437.95544 L 408.00131 461.00232 L 405.48569 461.00232 L 399.56381 443.29919 C 399.40756 442.86169 399.26173 442.37211 399.12631 441.83044 C 399.00131 441.28878 398.87631 440.68461 398.75131 440.01794 C 398.6784 440.61169 398.58465 441.18461 398.47006 441.73669 C 398.3659 442.27836 398.23569 442.81482 398.07944 443.34607 L 393.03256 461.00232 L 390.98569 461.00232 z M 373.45444 461.00232 L 374.28256 458.12732 L 376.84506 458.12732 L 376.04819 461.00232 L 373.45444 461.00232 z M 357.54819 461.00232 L 364.14194 437.95544 L 366.18881 437.95544 L 362.31381 451.53357 L 371.18881 444.93982 L 374.06381 444.93982 L 364.17319 452.20544 L 370.42319 461.00232 L 368.04819 461.00232 L 362.06381 452.39294 L 359.59506 461.00232 L 357.54819 461.00232 z M 339.31381 461.00232 L 342.48569 449.92419 C 342.79819 448.88253 343.04819 447.98669 343.23569 447.23669 C 343.4336 446.47628 343.6211 445.71065 343.79819 444.93982 L 345.97006 444.93982 L 345.14194 447.78357 C 346.1211 446.7419 347.09506 445.97628 348.06381 445.48669 C 349.03256 444.99711 350.0534 444.75232 351.12631 444.75232 C 352.39715 444.75232 353.40756 445.0544 354.15756 445.65857 C 354.90756 446.26274 355.28256 447.08044 355.28256 448.11169 C 355.28256 448.40336 355.25131 448.73149 355.18881 449.09607 C 355.12631 449.45024 355.03256 449.85649 354.90756 450.31482 L 351.82944 461.00232 L 349.78256 461.00232 L 352.82944 450.43982 C 352.9336 450.09607 353.01173 449.77836 353.06381 449.48669 C 353.1159 449.19503 353.14194 448.93982 353.14194 448.72107 C 353.14194 447.98149 352.91277 447.41378 352.45444 447.01794 C 351.9961 446.61169 351.35027 446.40857 350.51694 446.40857 C 348.89194 446.40857 347.48569 447.00753 346.29819 448.20544 C 345.1211 449.39294 344.19402 451.15336 343.51694 453.48669 L 341.36069 461.00232 L 339.31381 461.00232 z M 337.26694 440.39294 L 338.00131 437.95544 L 340.32944 437.95544 L 339.62631 440.39294 L 337.26694 440.39294 z M 331.53256 461.00232 L 336.14194 444.93982 L 338.18881 444.93982 L 333.57944 461.00232 L 331.53256 461.00232 z M 323.75131 461.00232 L 330.34506 437.95544 L 332.39194 437.95544 L 325.79819 461.00232 L 323.75131 461.00232 z M 300.25131 453.25232 C 300.13673 453.70024 300.0534 454.11169 300.00131 454.48669 C 299.94923 454.85128 299.92319 455.21065 299.92319 455.56482 C 299.92319 456.8044 300.32423 457.8044 301.12631 458.56482 C 301.9284 459.31482 303.00131 459.68982 304.34506 459.68982 C 305.48048 459.68982 306.45444 459.40336 307.26694 458.83044 C 308.07944 458.24711 308.73569 457.38253 309.23569 456.23669 L 311.28256 456.23669 C 310.81381 457.84086 309.9336 459.09607 308.64194 460.00232 C 307.35027 460.90857 305.78777 461.36169 303.95444 461.36169 C 301.97527 461.36169 300.45444 460.85649 299.39194 459.84607 C 298.33985 458.82524 297.81381 457.3669 297.81381 455.47107 C 297.81381 454.0544 298.09506 452.61169 298.65756 451.14294 C 299.23048 449.67419 299.9961 448.40857 300.95444 447.34607 C 301.77735 446.4294 302.71485 445.73669 303.76694 445.26794 C 304.81902 444.78878 305.93881 444.54919 307.12631 444.54919 C 308.93881 444.54919 310.33985 445.02315 311.32944 445.97107 C 312.31902 446.90857 312.81381 448.23669 312.81381 449.95544 C 312.81381 450.41378 312.77735 450.91378 312.70444 451.45544 C 312.63152 451.99711 312.52215 452.59607 312.37631 453.25232 L 300.25131 453.25232 z M 300.65756 451.75232 L 310.61069 451.75232 C 310.67319 451.34607 310.72006 450.98669 310.75131 450.67419 C 310.78256 450.35128 310.79819 450.05961 310.79819 449.79919 C 310.79819 448.64294 310.45965 447.73669 309.78256 447.08044 C 309.1159 446.42419 308.18881 446.09607 307.00131 446.09607 C 305.58465 446.09607 304.3034 446.60649 303.15756 447.62732 C 302.01173 448.64815 301.1784 450.02315 300.65756 451.75232 z M 278.54819 461.00232 L 285.14194 437.95544 L 287.18881 437.95544 L 284.37631 447.78357 C 285.35548 446.7419 286.32944 445.97628 287.29819 445.48669 C 288.26694 444.99711 289.28777 444.75232 290.36069 444.75232 C 291.63152 444.75232 292.64194 445.0544 293.39194 445.65857 C 294.14194 446.26274 294.51694 447.08044 294.51694 448.11169 C 294.51694 448.40336 294.48569 448.73149 294.42319 449.09607 C 294.36069 449.45024 294.26694 449.85649 294.14194 450.31482 L 291.06381 461.00232 L 289.01694 461.00232 L 292.06381 450.43982 C 292.16798 450.09607 292.2461 449.77836 292.29819 449.48669 C 292.35027 449.19503 292.37631 448.93982 292.37631 448.72107 C 292.37631 447.98149 292.14715 447.41378 291.68881 447.01794 C 291.23048 446.61169 290.58465 446.40857 289.75131 446.40857 C 288.12631 446.40857 286.72006 447.00753 285.53256 448.20544 C 284.35548 449.39294 283.4284 451.15336 282.75131 453.48669 L 280.59506 461.00232 L 278.54819 461.00232 z M 267.43881 461.00232 L 273.51694 439.78357 L 266.09506 439.78357 L 266.64194 437.95544 L 283.43881 437.95544 L 282.89194 439.78357 L 275.62631 439.78357 L 269.54819 461.00232 L 267.43881 461.00232 z "
     id="path652" />
</svg>
