<?xml version="1.0" encoding="UTF-8" standalone="no"?>
<!DOCTYPE svg PUBLIC "-//W3C//DTD SVG 20010904//EN"
"http://www.w3.org/TR/2001/REC-SVG-20010904/DTD/svg10.dtd">
<!-- Created with Sodipodi ("http://www.sodipodi.com/") -->
<svg
   id="svg101"
   sodipodi:version="0.33pre"
   width="580pt"
   height="180pt"
   sodipodi:docname="/home/daniel/trac_logo.svg"
   xmlns="http://www.w3.org/2000/svg"
   xmlns:sodipodi="http://sodipodi.sourceforge.net/DTD/sodipodi-0.dtd"
   xmlns:xlink="http://www.w3.org/1999/xlink"
   sodipodi:docbase="/home/daniel/">
  <defs
     id="defs103" />
  <sodipodi:namedview
     id="base"
     snaptoguides="true" />
  <g
     id="g555"
     transform="translate(-17.42359,-367.3286)">
    <path
       transform="translate(-3.2682,-81.7052)"
       style="font-size:12;fill:#a50000;fill-rule:evenodd;stroke-width:1pt;"
       d="M 63.6914 467.391 C 51.4652 467.391 41.6226 477.234 41.6226 489.46 L 41.6226 573.581 C 41.6226 585.807 51.4652 595.65 63.6914 595.65 L 614.981 595.65 C 627.207 595.65 637.05 585.807 637.05 573.581 L 637.05 489.46 C 637.05 477.234 627.207 467.391 614.981 467.391 L 63.6914 467.391 z "
       id="path108" />
    <path
       transform="matrix(1.08576,0,0,1.08576,24.5116,-235.51)"
       d="M 412.874 621.468 L 412.874 620.765 C 412.874 618.046 411.968 616.062 410.155 614.812 C 408.374 613.531 405.53 612.89 401.624 612.89 L 384.562 612.89 C 377.249 612.89 372.546 613.781 370.452 615.562 C 368.39 617.312 367.358 620.999 367.358 626.624 L 367.358 636.327 C 367.358 641.359 368.515 644.812 370.827 646.687 C 373.14 648.562 377.718 649.499 384.562 649.499 L 396.937 649.499 C 403.718 649.499 408.155 648.827 410.249 647.484 C 412.374 646.109 413.437 643.577 413.437 639.89 L 413.437 639.14 L 435.046 639.14 C 435.046 639.234 435.062 639.406 435.093 639.656 C 435.187 641.687 435.233 643.202 435.233 644.202 C 435.233 648.671 434.671 652.359 433.546 655.265 C 432.421 658.171 430.655 660.499 428.249 662.249 C 425.968 663.937 422.921 665.14 419.108 665.859 C 415.327 666.577 409.765 666.937 402.421 666.937 L 378.608 666.937 C 371.327 666.937 365.968 666.546 362.53 665.765 C 359.093 664.984 356.155 663.656 353.718 661.781 C 350.905 659.562 348.858 656.843 347.577 653.624 C 346.296 650.374 345.655 646.281 345.655 641.343 L 345.655 622.312 C 345.655 612.312 348.03 605.343 352.78 601.406 C 357.53 597.437 366.14 595.452 378.608 595.452 L 402.421 595.452 C 410.077 595.452 415.718 595.796 419.343 596.484 C 422.968 597.171 425.827 598.327 427.921 599.952 C 430.14 601.64 431.765 603.921 432.796 606.796 C 433.858 609.64 434.39 613.218 434.39 617.531 C 434.39 618.562 434.374 619.359 434.343 619.921 C 434.343 620.452 434.312 620.968 434.249 621.468 L 412.874 621.468 z M 274.452 637.687 L 301.265 637.687 L 287.718 612.984 L 274.452 637.687 z M 259.593 666.093 L 236.343 666.093 L 274.452 596.296 L 301.64 596.296 L 339.046 666.093 L 315.655 666.093 L 308.905 654.468 L 266.39 654.468 L 259.593 666.093 z M 200.343 613.687 L 166.452 613.687 L 166.452 630.749 L 200.343 630.749 C 203.187 630.749 205.171 630.093 206.296 628.781 C 207.452 627.437 208.03 625.031 208.03 621.562 C 208.03 618.812 207.421 616.812 206.202 615.562 C 204.983 614.312 203.03 613.687 200.343 613.687 z M 201.14 596.296 C 212.202 596.296 219.733 597.937 223.733 601.218 C 227.733 604.499 229.733 610.484 229.733 619.171 C 229.733 625.202 228.843 629.687 227.062 632.624 C 225.28 635.562 222.296 637.531 218.108 638.531 C 221.796 639.406 224.562 640.952 226.405 643.171 C 228.249 645.39 229.171 648.265 229.171 651.796 L 229.171 666.093 L 207.843 666.093 L 207.843 655.452 C 207.843 652.702 207.187 650.812 205.874 649.781 C 204.593 648.749 202.046 648.234 198.233 648.234 L 166.452 648.234 L 166.452 666.093 L 145.077 666.093 L 145.077 596.296 L 201.14 596.296 z M 106.077 666.093 L 84.7959 666.093 L 84.7959 613.406 L 55.5928 613.406 L 55.5928 596.296 L 135.28 596.296 L 135.28 613.406 L 106.077 613.406 L 106.077 666.093 z "
       id="path137"
       style="fill:#ffffff;fill-opacity:1;" />
    <path
       transform="translate(-3.2682,-81.7052)"
       style="font-size:12;fill:#a70000;fill-rule:evenodd;stroke:#ffffff;stroke-width:8.50235;"
       d="M 560.928 497.605 C 553.863 497.605 548.175 503.293 548.175 510.358 L 548.175 552.683 C 548.175 559.748 553.863 565.436 560.928 565.436 L 712.007 565.436 C 719.073 565.436 724.761 559.748 724.761 552.683 L 724.761 510.358 C 724.761 503.293 719.073 497.605 712.007 497.605 L 560.928 497.605 z "
       id="path109" />
    <path
       transform="matrix(0.927025,0,0,0.927025,11.5549,-6.93301)"
       d="M 690.679 617.516 L 690.679 613.297 L 694.57 613.297 L 694.57 617.516 L 690.679 617.516 z M 681.234 615.594 C 681.234 617.844 681.007 619.539 680.554 620.68 C 680.101 621.836 679.335 622.844 678.257 623.703 C 677.039 624.688 675.57 625.422 673.851 625.907 C 672.148 626.391 670.179 626.633 667.945 626.633 C 664.492 626.633 661.734 625.969 659.671 624.641 C 657.624 623.313 656.492 621.469 656.273 619.11 L 659.718 619.11 C 659.968 620.625 660.765 621.758 662.109 622.508 C 663.468 623.274 665.374 623.657 667.828 623.657 C 671.453 623.657 674.039 623.063 675.585 621.875 C 677.148 620.688 677.929 618.703 677.929 615.922 L 677.929 613.11 C 676.554 614.844 675.054 616.118 673.429 616.93 C 671.82 617.743 669.937 618.149 667.781 618.149 C 663.781 618.149 660.539 616.922 658.054 614.469 C 655.585 612 654.351 608.774 654.351 604.789 C 654.351 600.805 655.585 597.586 658.054 595.133 C 660.539 592.68 663.781 591.453 667.781 591.453 C 669.89 591.453 671.773 591.868 673.429 592.696 C 675.101 593.524 676.601 594.789 677.929 596.493 L 677.929 592.086 L 681.234 592.086 L 681.234 615.594 z M 677.929 604.789 C 677.929 601.696 677.015 599.227 675.187 597.383 C 673.359 595.539 670.906 594.618 667.828 594.618 C 664.781 594.618 662.335 595.547 660.492 597.407 C 658.664 599.25 657.749 601.711 657.749 604.789 C 657.749 607.883 658.664 610.352 660.492 612.196 C 662.335 614.039 664.781 614.961 667.828 614.961 C 670.906 614.961 673.359 614.047 675.187 612.219 C 677.015 610.375 677.929 607.899 677.929 604.789 z M 625.312 617.516 L 625.312 592.086 L 628.523 592.086 L 628.523 596.774 C 629.757 595.055 631.273 593.758 633.07 592.883 C 634.867 591.993 636.898 591.547 639.164 591.547 C 642.523 591.547 644.992 592.321 646.57 593.868 C 648.164 595.399 648.96 597.797 648.96 601.063 L 648.96 617.516 L 645.656 617.516 L 645.656 603.219 C 645.656 599.985 645.124 597.735 644.062 596.469 C 642.999 595.203 641.179 594.571 638.601 594.571 C 635.695 594.571 633.304 595.36 631.429 596.938 C 629.554 598.516 628.617 600.547 628.617 603.032 L 628.617 617.516 L 625.312 617.516 z M 614.742 586.789 L 614.742 582.852 L 618.046 582.852 L 618.046 586.789 L 614.742 586.789 z M 614.742 617.516 L 614.742 592.086 L 618.046 592.086 L 618.046 617.516 L 614.742 617.516 z M 585.164 609.5 L 588.539 609.5 C 588.773 611.391 589.624 612.821 591.093 613.789 C 592.578 614.743 594.671 615.219 597.374 615.219 C 600.234 615.219 602.406 614.821 603.89 614.024 C 605.39 613.211 606.14 612.039 606.14 610.508 C 606.14 609.43 605.765 608.594 605.015 608 C 604.281 607.391 603.078 606.961 601.406 606.711 L 593.999 605.61 C 591.109 605.188 589.023 604.43 587.742 603.336 C 586.476 602.243 585.843 600.68 585.843 598.649 C 585.843 596.352 586.851 594.532 588.867 593.188 C 590.882 591.844 593.648 591.172 597.164 591.172 C 600.71 591.172 603.492 591.907 605.507 593.375 C 607.539 594.828 608.578 596.844 608.624 599.422 L 605.296 599.422 C 605.046 597.688 604.203 596.391 602.765 595.532 C 601.328 594.672 599.304 594.243 596.695 594.243 C 594.367 594.243 592.554 594.618 591.257 595.368 C 589.96 596.118 589.312 597.149 589.312 598.461 C 589.312 599.555 589.726 600.399 590.554 600.993 C 591.382 601.571 592.914 602.024 595.148 602.352 L 601.687 603.36 C 604.499 603.782 606.523 604.532 607.757 605.61 C 608.992 606.672 609.609 608.196 609.609 610.18 C 609.609 612.868 608.539 614.914 606.398 616.321 C 604.257 617.727 601.132 618.43 597.023 618.43 C 593.429 618.43 590.601 617.657 588.539 616.11 C 586.492 614.563 585.367 612.36 585.164 609.5 z M 557.953 609.5 L 561.328 609.5 C 561.562 611.391 562.414 612.821 563.882 613.789 C 565.367 614.743 567.46 615.219 570.164 615.219 C 573.023 615.219 575.195 614.821 576.679 614.024 C 578.179 613.211 578.929 612.039 578.929 610.508 C 578.929 609.43 578.554 608.594 577.804 608 C 577.07 607.391 575.867 606.961 574.195 606.711 L 566.789 605.61 C 563.898 605.188 561.812 604.43 560.531 603.336 C 559.265 602.243 558.632 600.68 558.632 598.649 C 558.632 596.352 559.64 594.532 561.656 593.188 C 563.671 591.844 566.437 591.172 569.953 591.172 C 573.499 591.172 576.281 591.907 578.296 593.375 C 580.328 594.828 581.367 596.844 581.414 599.422 L 578.085 599.422 C 577.835 597.688 576.992 596.391 575.554 595.532 C 574.117 594.672 572.093 594.243 569.484 594.243 C 567.156 594.243 565.343 594.618 564.046 595.368 C 562.749 596.118 562.101 597.149 562.101 598.461 C 562.101 599.555 562.515 600.399 563.343 600.993 C 564.171 601.571 565.703 602.024 567.937 602.352 L 574.476 603.36 C 577.289 603.782 579.312 604.532 580.546 605.61 C 581.781 606.672 582.398 608.196 582.398 610.18 C 582.398 612.868 581.328 614.914 579.187 616.321 C 577.046 617.727 573.921 618.43 569.812 618.43 C 566.218 618.43 563.39 617.657 561.328 616.11 C 559.281 614.563 558.156 612.36 557.953 609.5 z M 549.515 586.789 L 549.515 582.852 L 552.82 582.852 L 552.82 586.789 L 549.515 586.789 z M 549.515 617.516 L 549.515 592.086 L 552.82 592.086 L 552.82 617.516 L 549.515 617.516 z M 498.679 617.516 L 498.679 592.086 L 501.89 592.086 L 501.89 596.774 C 503.124 595.055 504.64 593.758 506.437 592.883 C 508.234 591.993 510.265 591.547 512.531 591.547 C 514.984 591.547 516.984 591.977 518.531 592.836 C 520.078 593.696 521.218 595.008 521.953 596.774 C 523.187 595.055 524.703 593.758 526.499 592.883 C 528.312 591.993 530.343 591.547 532.593 591.547 C 535.953 591.547 538.421 592.321 539.999 593.868 C 541.593 595.399 542.39 597.797 542.39 601.063 L 542.39 617.516 L 539.039 617.516 L 539.039 603.219 C 539.039 599.969 538.507 597.719 537.445 596.469 C 536.398 595.203 534.593 594.571 532.031 594.571 C 529.124 594.571 526.734 595.36 524.859 596.938 C 522.984 598.516 522.046 600.547 522.046 603.032 L 522.046 617.516 L 519.023 617.516 L 519.023 603.219 C 519.023 599.985 518.492 597.735 517.429 596.469 C 516.367 595.203 514.546 594.571 511.968 594.571 C 509.062 594.571 506.671 595.36 504.796 596.938 C 502.921 598.516 501.984 600.547 501.984 603.032 L 501.984 617.516 L 498.679 617.516 z M 468.703 617.516 L 465.351 617.516 L 465.351 592.086 L 468.703 592.086 L 468.703 596.305 C 469.437 594.696 470.476 593.438 471.82 592.532 C 473.179 591.625 474.687 591.172 476.343 591.172 C 476.89 591.172 477.437 591.235 477.984 591.36 C 478.546 591.469 479.117 591.641 479.695 591.875 L 479.695 595.11 C 479.132 594.938 478.609 594.813 478.124 594.735 C 477.64 594.657 477.171 594.618 476.718 594.618 C 474.734 594.618 473.078 595.157 471.749 596.235 C 470.421 597.297 469.406 598.907 468.703 601.063 L 468.703 617.516 z M 436.499 602.727 L 456.117 602.727 C 455.929 600.196 454.945 598.164 453.164 596.633 C 451.382 595.102 449.124 594.336 446.39 594.336 C 443.609 594.336 441.32 595.102 439.523 596.633 C 437.726 598.164 436.718 600.196 436.499 602.727 z M 458.953 609.407 C 458.281 612.172 456.812 614.368 454.546 615.993 C 452.296 617.618 449.578 618.43 446.39 618.43 C 442.312 618.43 439.023 617.18 436.523 614.68 C 434.039 612.18 432.796 608.883 432.796 604.789 C 432.796 600.727 434.046 597.446 436.546 594.946 C 439.046 592.43 442.328 591.172 446.39 591.172 C 450.468 591.172 453.742 592.407 456.21 594.875 C 458.679 597.344 459.914 600.633 459.914 604.743 L 459.914 605.516 L 436.406 605.516 C 436.593 608.594 437.554 610.977 439.289 612.664 C 441.023 614.336 443.39 615.172 446.39 615.172 C 448.562 615.172 450.414 614.672 451.945 613.672 C 453.492 612.657 454.578 611.235 455.203 609.407 L 458.953 609.407 z M 427.242 615.594 C 427.242 617.844 427.015 619.539 426.562 620.68 C 426.109 621.836 425.343 622.844 424.265 623.703 C 423.046 624.688 421.578 625.422 419.859 625.907 C 418.156 626.391 416.187 626.633 413.953 626.633 C 410.499 626.633 407.742 625.969 405.679 624.641 C 403.632 623.313 402.499 621.469 402.281 619.11 L 405.726 619.11 C 405.976 620.625 406.773 621.758 408.117 622.508 C 409.476 623.274 411.382 623.657 413.835 623.657 C 417.46 623.657 420.046 623.063 421.593 621.875 C 423.156 620.688 423.937 618.703 423.937 615.922 L 423.937 613.11 C 422.562 614.844 421.062 616.118 419.437 616.93 C 417.828 617.743 415.945 618.149 413.789 618.149 C 409.789 618.149 406.546 616.922 404.062 614.469 C 401.593 612 400.359 608.774 400.359 604.789 C 400.359 600.805 401.593 597.586 404.062 595.133 C 406.546 592.68 409.789 591.453 413.789 591.453 C 415.898 591.453 417.781 591.868 419.437 592.696 C 421.109 593.524 422.609 594.789 423.937 596.493 L 423.937 592.086 L 427.242 592.086 L 427.242 615.594 z M 423.937 604.789 C 423.937 601.696 423.023 599.227 421.195 597.383 C 419.367 595.539 416.914 594.618 413.835 594.618 C 410.789 594.618 408.343 595.547 406.499 597.407 C 404.671 599.25 403.757 601.711 403.757 604.789 C 403.757 607.883 404.671 610.352 406.499 612.196 C 408.343 614.039 410.789 614.961 413.835 614.961 C 416.914 614.961 419.367 614.047 421.195 612.219 C 423.023 610.375 423.937 607.899 423.937 604.789 z M 371.32 617.516 L 371.32 592.086 L 374.531 592.086 L 374.531 596.774 C 375.765 595.055 377.281 593.758 379.078 592.883 C 380.874 591.993 382.906 591.547 385.171 591.547 C 388.531 591.547 390.999 592.321 392.578 593.868 C 394.171 595.399 394.968 597.797 394.968 601.063 L 394.968 617.516 L 391.664 617.516 L 391.664 603.219 C 391.664 599.985 391.132 597.735 390.07 596.469 C 389.007 595.203 387.187 594.571 384.609 594.571 C 381.703 594.571 379.312 595.36 377.437 596.938 C 375.562 598.516 374.624 600.547 374.624 603.032 L 374.624 617.516 L 371.32 617.516 z M 342.07 604.789 C 342.07 607.961 342.992 610.485 344.835 612.36 C 346.679 614.235 349.156 615.172 352.265 615.172 C 355.359 615.172 357.828 614.235 359.671 612.36 C 361.515 610.469 362.437 607.946 362.437 604.789 C 362.437 601.633 361.515 599.118 359.671 597.243 C 357.828 595.368 355.359 594.43 352.265 594.43 C 349.156 594.43 346.679 595.368 344.835 597.243 C 342.992 599.118 342.07 601.633 342.07 604.789 z M 338.671 604.789 C 338.671 600.727 339.921 597.446 342.421 594.946 C 344.921 592.43 348.203 591.172 352.265 591.172 C 356.312 591.172 359.593 592.43 362.109 594.946 C 364.624 597.461 365.882 600.743 365.882 604.789 C 365.882 608.852 364.624 612.141 362.109 614.657 C 359.593 617.172 356.312 618.43 352.265 618.43 C 348.203 618.43 344.921 617.172 342.421 614.657 C 339.921 612.141 338.671 608.852 338.671 604.789 z M 329.648 617.516 L 329.648 582.852 L 332.953 582.852 L 332.953 617.516 L 329.648 617.516 z M 284.601 604.789 C 284.601 607.961 285.523 610.485 287.367 612.36 C 289.21 614.235 291.687 615.172 294.796 615.172 C 297.89 615.172 300.359 614.235 302.203 612.36 C 304.046 610.469 304.968 607.946 304.968 604.789 C 304.968 601.633 304.046 599.118 302.203 597.243 C 300.359 595.368 297.89 594.43 294.796 594.43 C 291.687 594.43 289.21 595.368 287.367 597.243 C 285.523 599.118 284.601 601.633 284.601 604.789 z M 281.203 604.789 C 281.203 600.727 282.453 597.446 284.953 594.946 C 287.453 592.43 290.734 591.172 294.796 591.172 C 298.843 591.172 302.124 592.43 304.64 594.946 C 307.156 597.461 308.414 600.743 308.414 604.789 C 308.414 608.852 307.156 612.141 304.64 614.657 C 302.124 617.172 298.843 618.43 294.796 618.43 C 290.734 618.43 287.453 617.172 284.953 614.657 C 282.453 612.141 281.203 608.852 281.203 604.789 z M 252.164 617.516 L 252.164 592.086 L 255.374 592.086 L 255.374 596.774 C 256.609 595.055 258.124 593.758 259.921 592.883 C 261.718 591.993 263.749 591.547 266.015 591.547 C 269.374 591.547 271.843 592.321 273.421 593.868 C 275.015 595.399 275.812 597.797 275.812 601.063 L 275.812 617.516 L 272.507 617.516 L 272.507 603.219 C 272.507 599.985 271.976 597.735 270.914 596.469 C 269.851 595.203 268.031 594.571 265.453 594.571 C 262.546 594.571 260.156 595.36 258.281 596.938 C 256.406 598.516 255.468 600.547 255.468 603.032 L 255.468 617.516 L 252.164 617.516 z M 208.382 617.516 L 208.382 582.852 L 211.734 582.852 L 211.734 603.922 L 226.382 592.086 L 231.328 592.086 L 219.749 601.438 L 233.226 617.516 L 228.773 617.516 L 217.007 603.547 L 211.734 607.86 L 211.734 617.516 L 208.382 617.516 z M 177.703 617.516 L 177.703 592.086 L 180.914 592.086 L 180.914 596.774 C 182.148 595.055 183.664 593.758 185.46 592.883 C 187.257 591.993 189.289 591.547 191.554 591.547 C 194.914 591.547 197.382 592.321 198.96 593.868 C 200.554 595.399 201.351 597.797 201.351 601.063 L 201.351 617.516 L 198.046 617.516 L 198.046 603.219 C 198.046 599.985 197.515 597.735 196.453 596.469 C 195.39 595.203 193.57 594.571 190.992 594.571 C 188.085 594.571 185.695 595.36 183.82 596.938 C 181.945 598.516 181.007 600.547 181.007 603.032 L 181.007 617.516 L 177.703 617.516 z M 167.132 586.789 L 167.132 582.852 L 170.437 582.852 L 170.437 586.789 L 167.132 586.789 z M 167.132 617.516 L 167.132 592.086 L 170.437 592.086 L 170.437 617.516 L 167.132 617.516 z M 156.328 617.516 L 156.328 582.852 L 159.632 582.852 L 159.632 617.516 L 156.328 617.516 z M 111.773 602.727 L 131.39 602.727 C 131.203 600.196 130.218 598.164 128.437 596.633 C 126.656 595.102 124.398 594.336 121.664 594.336 C 118.882 594.336 116.593 595.102 114.796 596.633 C 112.999 598.164 111.992 600.196 111.773 602.727 z M 134.226 609.407 C 133.554 612.172 132.085 614.368 129.82 615.993 C 127.57 617.618 124.851 618.43 121.664 618.43 C 117.585 618.43 114.296 617.18 111.796 614.68 C 109.312 612.18 108.07 608.883 108.07 604.789 C 108.07 600.727 109.32 597.446 111.82 594.946 C 114.32 592.43 117.601 591.172 121.664 591.172 C 125.742 591.172 129.015 592.407 131.484 594.875 C 133.953 597.344 135.187 600.633 135.187 604.743 L 135.187 605.516 L 111.679 605.516 C 111.867 608.594 112.828 610.977 114.562 612.664 C 116.296 614.336 118.664 615.172 121.664 615.172 C 123.835 615.172 125.687 614.672 127.218 613.672 C 128.765 612.657 129.851 611.235 130.476 609.407 L 134.226 609.407 z M 79.0307 617.516 L 79.0307 582.852 L 82.2416 582.852 L 82.2416 596.774 C 83.476 595.055 84.9916 593.758 86.7885 592.883 C 88.5854 591.993 90.6166 591.547 92.8823 591.547 C 96.2416 591.547 98.7104 592.321 100.289 593.868 C 101.882 595.399 102.679 597.797 102.679 601.063 L 102.679 617.516 L 99.3745 617.516 L 99.3745 603.219 C 99.3745 599.985 98.8432 597.735 97.7807 596.469 C 96.7182 595.203 94.8979 594.571 92.3198 594.571 C 89.4135 594.571 87.0229 595.36 85.1479 596.938 C 83.2729 598.516 82.3354 600.547 82.3354 603.032 L 82.3354 617.516 L 79.0307 617.516 z M 58.5698 617.516 L 58.5698 586.039 L 45.187 586.039 L 45.187 582.852 L 75.4213 582.852 L 75.4213 586.039 L 62.0385 586.039 L 62.0385 617.516 L 58.5698 617.516 z "
       id="path138"
       style="fill:#000000;fill-opacity:1;" />
  </g>
</svg>
