<?xml version="1.0" encoding="UTF-8" standalone="no"?>
<!DOCTYPE svg PUBLIC "-//W3C//DTD SVG 20010904//EN"
"http://www.w3.org/TR/2001/REC-SVG-20010904/DTD/svg10.dtd">
<!-- Created with Inkscape (http://www.inkscape.org/) -->
<svg
   id="svg5040"
   sodipodi:version="0.32"
   inkscape:version="0.39"
   width="490.00000pt"
   height="140.00000pt"
   sodipodi:docbase="/home/daniel/trac/doc"
   sodipodi:docname="trac_logo.svg"
   xmlns="http://www.w3.org/2000/svg"
   xmlns:inkscape="http://www.inkscape.org/namespaces/inkscape"
   xmlns:sodipodi="http://sodipodi.sourceforge.net/DTD/sodipodi-0.dtd"
   xmlns:xlink="http://www.w3.org/1999/xlink"
   xmlns:rdf="http://www.w3.org/1999/02/22-rdf-syntax-ns#"
   xmlns:cc="http://web.resource.org/cc/"
   xmlns:dc="http://purl.org/dc/elements/1.1/"
   inkscape:export-filename="/home/daniel/website2/gfx/trac_logo.png"
   inkscape:export-xdpi="31.444899"
   inkscape:export-ydpi="31.444899">
  <defs
     id="defs5042" />
  <sodipodi:namedview
     id="base"
     pagecolor="#ffffff"
     bordercolor="#666666"
     borderopacity="1.0"
     inkscape:pageopacity="1.0000000"
     inkscape:pageshadow="2"
     inkscape:zoom="1.2279853"
     inkscape:cx="246.83341"
     inkscape:cy="39.340811"
     inkscape:window-width="804"
     inkscape:window-height="525"
     inkscape:window-x="232"
     inkscape:window-y="0" />
  <metadata
     id="metadata4402">
    <rdf:RDF
       id="RDF4403">
      <cc:Work
         rdf:about=""
         id="Work4404">
        <dc:format
           id="format4405">image/svg+xml</dc:format>
        <dc:type
           id="type4407"
           rdf:resource="http://purl.org/dc/dcmitype/StillImage" />
      </cc:Work>
    </rdf:RDF>
  </metadata>
  <g
     id="g4408"
     transform="matrix(1.124394,-0.316118,0.316118,1.124394,-10.07967,28.50764)"
     style="font-size:12.000000;fill:#c00000;fill-opacity:1.0000000;stroke:none;stroke-width:1.2500000;stroke-opacity:1.0000000;"
     sodipodi:fill-cmyk="(0.24705882 1.0000000 1.0000000 0.0000000)">
    <path
       d="M 1.6486500,89.754800 C 4.9170500,96.945300 11.692000,104.96700 17.575100,104.31300 C 23.458200,103.66000 29.995100,88.625000 28.687700,86.010300 C 27.380300,83.395600 22.030200,63.606300 13.475300,63.844400 C 4.9204700,64.082400 -1.6197500,82.564300 1.6486500,89.754800 z "
       id="path4409"
       style="fill:#c00000;fill-opacity:1.0000000;" />
    <path
       d="M 15.710600,47.127900 C 18.266100,56.457200 29.674900,70.538700 39.835500,69.528600 C 49.996000,68.518400 47.265100,54.196500 44.532000,44.452800 C 44.137200,43.045500 45.243700,37.900900 43.208100,32.656500 C 41.172500,27.412100 36.801600,23.146500 32.527600,23.356200 C 20.408300,23.950700 12.442200,39.937400 15.710600,47.127900 z "
       id="path4410"
       style="fill:#c00000;fill-opacity:1.0000000;" />
    <path
       d="M 57.772000,55.326400 C 61.040400,62.516800 60.329800,68.756400 67.995200,70.597900 C 75.660600,72.439400 86.537900,56.076500 88.375600,48.730200 C 90.213200,41.383900 87.870300,22.968500 74.589100,22.999800 C 61.307800,23.031000 56.642400,37.798800 57.772000,55.326400 z "
       id="path4411"
       style="fill:#c00000;fill-opacity:1.0000000;" />
    <path
       d="M 81.297900,86.694200 C 80.645300,94.241100 84.925100,100.83700 94.016300,100.89600 C 103.10700,100.95600 111.42700,79.861100 110.11900,77.246400 C 108.81200,74.631700 108.09600,62.684400 99.540700,62.922400 C 90.985900,63.160500 80.881100,76.652100 81.297900,86.694200 z "
       id="path4412"
       style="fill:#c00000;fill-opacity:1.0000000;" />
    <path
       d="M 23.909000,124.83500 C 34.089300,132.60000 41.431500,121.82000 55.063700,121.87800 C 68.696000,121.93600 77.924600,130.69300 84.748500,120.50100 C 93.494500,107.43800 81.348900,106.35200 73.886200,97.368600 C 66.423500,88.384900 70.849800,81.744800 55.582000,81.167400 C 39.120500,80.544900 42.595800,98.170200 35.022800,102.13200 C 24.026800,107.88500 17.628900,120.04400 23.909000,124.83500 z "
       id="path4413"
       style="fill:#c00000;fill-opacity:1.0000000;" />
    <path
       d="M 0.018737800,54.969900 C 0.24325600,57.967700 4.2241800,61.936300 6.9705200,61.544000 C 9.7168600,61.151700 10.399900,58.323400 10.225300,54.576000 C 10.050700,50.828700 5.8332200,44.980500 3.7262000,45.218600 C 1.6191700,45.456600 -0.20578000,51.972100 0.018737800,54.969900 z "
       id="path4414"
       style="fill:#c00000;fill-opacity:1.0000000;" />
    <path
       d="M 23.956000,13.757400 C 24.180500,16.755200 24.161500,21.973800 28.407800,21.581500 C 32.654100,21.189100 34.587200,18.860900 34.412600,15.113500 C 34.237900,11.366100 31.020500,5.0180100 28.913500,5.2560400 C 26.806500,5.4940800 23.731500,10.759600 23.956000,13.757400 z "
       id="path4415"
       style="fill:#c00000;fill-opacity:1.0000000;" />
    <path
       d="M 71.206000,10.757400 C 71.430500,13.755200 75.161500,19.723800 77.907800,19.331500 C 80.654100,18.939100 83.337200,14.110900 83.162600,10.363500 C 82.987900,6.6161500 79.270500,-0.23199500 77.163500,0.0060424800 C 75.056500,0.24408000 70.981500,7.7595800 71.206000,10.757400 z "
       id="path4416"
       style="fill:#c00000;fill-opacity:1.0000000;" />
    <path
       d="M 98.456000,55.007400 C 98.680500,58.005200 99.661500,61.223800 102.40800,60.831500 C 105.15400,60.439100 108.58700,58.860900 108.41300,55.113500 C 108.23800,51.366100 107.77100,42.768000 105.66300,43.006000 C 103.55600,43.244100 98.231500,52.009600 98.456000,55.007400 z "
       id="path4417"
       style="fill:#c00000;fill-opacity:1.0000000;" />
  </g>
  <path
     style="font-size:170.00000;font-style:normal;font-variant:normal;font-weight:bold;font-stretch:semi-expanded;fill:#000000;fill-opacity:1.0000000;stroke:none;stroke-width:1.0000000pt;stroke-linecap:butt;stroke-linejoin:miter;stroke-opacity:1.0000000;font-family:Myriad Pro SemiExt;text-anchor:start;writing-mode:lr;"
     d="M 432.73979,100.28021 C 428.31980,102.15021 422.87979,103.34021 415.73979,103.34021 C 402.47981,103.34021 390.91979,95.690197 390.91979,80.220213 C 390.74979,66.960226 400.43981,57.440213 415.05979,57.440213 C 422.87979,57.440213 427.97980,58.800214 431.54979,60.500213 L 435.96979,40.610213 C 429.50980,38.230215 421.00979,37.040213 413.69979,37.040213 C 380.20983,37.040213 363.03979,57.610237 363.03979,81.410213 C 363.03979,107.25019 381.22982,124.25021 410.12979,124.25021 C 421.00978,124.25021 430.86980,122.38021 436.30979,119.83021 L 432.73979,100.28021 M 360.20355,73.250213 C 360.20355,52.850233 349.83352,37.040213 321.27355,37.040213 C 304.95357,37.040213 293.05354,41.290216 286.93355,44.860213 L 291.86355,61.860213 C 297.64354,58.460216 307.67356,55.230213 316.68355,55.230213 C 331.30354,55.230213 333.17355,62.030216 333.17355,65.600213 L 333.17355,66.450213 C 300.19358,66.450213 280.81355,77.160234 280.81355,98.750213 C 280.81355,111.50020 291.01357,124.25021 309.20355,124.25021 C 319.91354,124.25021 329.09356,120.68021 334.87355,113.88021 L 335.55355,113.88021 L 337.08355,122.21021 L 361.56355,122.21021 C 360.71355,117.79022 360.20355,109.97020 360.20355,101.64021 L 360.20355,73.250213 M 334.02355,90.590213 C 334.02355,92.120211 333.85355,93.820214 333.51355,95.180213 C 331.81355,100.62021 325.86354,105.55021 318.72355,105.55021 C 311.92356,105.55021 307.67355,102.15021 307.67355,96.030213 C 307.67355,86.680222 318.21357,83.110213 334.02355,83.280213 L 334.02355,90.590213 M 228.42981,122.21021 L 255.45981,122.21021 L 255.45981,80.220213 C 255.45981,78.520214 255.45981,76.820211 255.79981,75.290213 C 257.32981,67.300221 263.78982,61.690213 274.83981,61.690213 C 278.06980,61.690213 280.44981,62.030213 282.65981,62.540213 L 282.65981,37.550213 C 280.44981,37.040213 279.25981,37.040213 276.87981,37.040213 C 268.20982,37.040213 256.81980,42.310226 252.39981,55.570213 L 251.71981,55.570213 L 250.86981,39.080213 L 227.74981,39.080213 C 228.25981,46.050206 228.42981,53.700226 228.42981,67.300213 L 228.42981,122.21021 M 177.48841,23.270213 L 177.48841,39.080213 L 166.09841,39.080213 L 166.09841,59.310213 L 177.48841,59.310213 L 177.48841,91.440213 C 177.48841,102.83020 179.86841,111.16022 184.62841,116.43021 C 188.87840,120.85021 196.35842,124.25021 205.36841,124.25021 C 213.01840,124.25021 219.64841,123.06021 223.21841,121.70021 L 222.87841,101.30021 C 220.32841,101.98021 218.79840,102.15021 214.54841,102.15021 C 205.87842,102.15021 203.83841,96.880203 203.83841,86.680213 L 203.83841,59.310213 L 223.21841,59.310213 L 223.21841,39.080213 L 203.83841,39.080213 L 203.83841,16.300213 L 177.48841,23.270213"
     id="text4418"
     sodipodi:nodetypes="cccccccccccccccccccccccccccccccccccccccccccccccccccccccccccccccc" />
  <path
     style="font-size:36.000000;font-style:normal;font-variant:normal;font-weight:normal;font-stretch:condensed;fill:#000000;fill-opacity:1.0000000;stroke:none;stroke-width:1.0000000pt;stroke-linecap:butt;stroke-linejoin:miter;stroke-opacity:1.0000000;font-family:Myriad Pro Cond;text-anchor:start;writing-mode:lr;"
     d="M 600.81909,142.37206 L 600.81909,145.32406 L 598.69509,145.32406 L 598.69509,147.41206 L 600.81909,147.41206 L 600.81909,157.52806 C 600.81909,159.94006 601.14309,161.12806 601.86309,161.92006 C 602.51109,162.67606 603.48309,162.96406 604.59909,162.96406 C 605.49909,162.96406 606.14709,162.85606 606.65109,162.67606 L 606.50709,160.55206 C 606.21909,160.62406 605.85909,160.66006 605.39109,160.66006 C 604.38309,160.66006 603.59109,160.08406 603.59109,157.78006 L 603.59109,147.41206 L 606.93909,147.41206 L 606.93909,145.32406 L 603.59109,145.32406 L 603.59109,141.25606 L 600.81909,142.37206 M 585.65240,162.74806 L 588.42440,162.74806 L 588.42440,151.76806 C 588.42440,151.15606 588.46040,150.61606 588.56840,150.22006 C 588.89240,148.34806 590.00841,147.37606 591.16040,147.37606 C 593.17640,147.37606 593.57240,149.42806 593.57240,151.51606 L 593.57240,162.74806 L 596.34440,162.74806 L 596.34440,151.04806 C 596.34440,146.80007 594.54440,145.03606 592.13240,145.03606 C 590.29641,145.03606 588.89240,146.00806 588.13640,147.41206 L 588.06440,147.41206 L 587.92040,145.32406 L 585.50840,145.32406 C 585.54440,146.72806 585.65240,147.77206 585.65240,149.82406 L 585.65240,162.74806 M 582.58228,154.28806 C 582.61828,153.85606 582.65428,153.38806 582.65428,152.70406 C 582.65428,148.78007 581.21428,145.03606 577.68628,145.03606 C 574.19428,145.03606 571.81828,148.56407 571.81828,154.21606 C 571.81828,159.58006 573.97828,162.96406 578.11828,162.96406 C 579.52228,162.96406 580.99828,162.67606 581.97028,162.13606 L 581.50228,160.12006 C 580.81828,160.48006 579.84628,160.76806 578.62228,160.76806 C 576.64228,160.76806 574.55428,159.65206 574.51828,154.28806 L 582.58228,154.28806 M 574.55428,152.23606 C 574.66228,149.86006 575.59828,147.19606 577.39828,147.19606 C 578.73028,147.19606 580.02628,148.74407 579.99028,152.23606 L 574.55428,152.23606 M 550.28522,162.74806 L 553.05722,162.74806 L 553.05722,151.66006 C 553.05722,151.12006 553.09322,150.61606 553.16522,150.18406 C 553.48922,148.31206 554.60522,147.34006 555.75722,147.34006 C 557.80921,147.34006 558.13322,149.39206 558.13322,151.30006 L 558.13322,162.74806 L 560.90522,162.74806 L 560.90522,151.51606 C 560.90522,150.94006 560.90522,150.40006 561.01322,149.96806 C 561.40922,148.31206 562.41722,147.34006 563.56922,147.34006 C 565.65721,147.34006 565.98122,149.53606 565.98122,151.80406 L 565.98122,162.74806 L 568.75322,162.74806 L 568.75322,151.19206 C 568.75322,146.72807 566.91721,145.03606 564.54122,145.03606 C 563.64122,145.03606 562.84922,145.25206 562.12922,145.68406 C 561.51722,146.11606 560.90522,146.80006 560.43722,147.66406 L 560.36522,147.66406 C 559.71722,145.79206 558.31322,145.03606 556.69322,145.03606 C 554.85722,145.03606 553.56122,146.04406 552.80522,147.44806 L 552.73322,147.44806 L 552.58922,145.32406 L 550.14122,145.32406 C 550.17722,146.72806 550.28522,147.77206 550.28522,149.82406 L 550.28522,162.74806 M 547.21509,154.28806 C 547.25109,153.85606 547.28709,153.38806 547.28709,152.70406 C 547.28709,148.78007 545.84709,145.03606 542.31909,145.03606 C 538.82710,145.03606 536.45109,148.56407 536.45109,154.21606 C 536.45109,159.58006 538.61110,162.96406 542.75109,162.96406 C 544.15509,162.96406 545.63109,162.67606 546.60309,162.13606 L 546.13509,160.12006 C 545.45109,160.48006 544.47909,160.76806 543.25509,160.76806 C 541.27509,160.76806 539.18709,159.65206 539.15109,154.28806 L 547.21509,154.28806 M 539.18709,152.23606 C 539.29509,149.86006 540.23109,147.19606 542.03109,147.19606 C 543.36309,147.19606 544.65909,148.74407 544.62309,152.23606 L 539.18709,152.23606 M 533.37534,150.76006 C 533.37534,148.06006 533.48334,146.51206 533.51934,145.32406 L 531.03534,145.32406 L 530.89134,147.26806 L 530.81934,147.26806 C 530.27934,146.26006 529.41534,145.03606 527.57934,145.03606 C 524.98734,145.03606 522.10734,147.66407 522.10734,154.10806 C 522.10734,159.22006 524.12335,162.71206 527.21934,162.71206 C 528.65934,162.71206 529.95534,161.95606 530.53134,160.58806 L 530.60334,160.58806 L 530.60334,162.35206 C 530.60334,166.31206 529.23534,167.68006 527.03934,167.68006 C 525.67134,167.68006 524.51934,167.28406 523.83534,166.92406 L 523.18734,169.08406 C 524.08734,169.58806 525.52734,169.94806 527.00334,169.94806 C 528.94734,169.94806 530.56734,169.26406 531.64734,168.11206 C 532.79934,166.81606 533.37534,165.08806 533.37534,160.51606 L 533.37534,150.76006 M 530.60334,156.37606 C 530.60334,156.88006 530.60334,157.42006 530.42334,157.96006 C 529.88334,160.04806 528.80334,160.44406 527.93934,160.44406 C 526.28334,160.44406 524.87934,158.42806 524.87934,153.96406 C 524.87934,150.11207 525.95934,147.41206 527.93934,147.41206 C 529.52334,147.41206 530.17134,148.88806 530.45934,150.04006 C 530.56734,150.43606 530.60334,150.86806 530.60334,151.33606 L 530.60334,156.37606 M 518.96522,151.22806 C 518.96522,147.34007 517.48921,145.03606 513.99722,145.03606 C 512.26922,145.03606 510.68522,145.64806 509.92922,146.18806 L 510.54122,148.13206 C 511.36922,147.55606 512.34122,147.23206 513.42122,147.23206 C 515.61721,147.23206 516.19322,148.85206 516.19322,151.19206 L 516.19322,151.73206 C 512.26922,151.76806 508.77722,153.67607 508.77722,158.06806 C 508.77722,161.09206 510.57722,163.03606 512.91722,163.03606 C 514.39322,163.03606 515.61722,162.24406 516.37322,160.91206 L 516.48122,160.91206 L 516.66122,162.74806 L 519.14522,162.74806 C 518.96522,161.63206 518.96522,160.12006 518.96522,158.78806 L 518.96522,151.22806 M 516.26522,157.24006 C 516.26522,157.56406 516.22922,157.92406 516.15722,158.24806 C 515.83322,159.97606 514.82522,160.87606 513.60122,160.87606 C 512.62922,160.87606 511.47722,160.08406 511.47722,157.78006 C 511.47722,154.00007 514.82522,153.71206 516.26522,153.71206 L 516.26522,157.24006 M 495.23053,162.74806 L 498.00253,162.74806 L 498.00253,151.76806 C 498.00253,151.15606 498.03853,150.61606 498.14653,150.22006 C 498.47053,148.34806 499.58653,147.37606 500.73853,147.37606 C 502.75453,147.37606 503.15053,149.42806 503.15053,151.51606 L 503.15053,162.74806 L 505.92253,162.74806 L 505.92253,151.04806 C 505.92253,146.80007 504.12253,145.03606 501.71053,145.03606 C 499.87453,145.03606 498.47053,146.00806 497.71453,147.41206 L 497.64253,147.41206 L 497.49853,145.32406 L 495.08653,145.32406 C 495.12253,146.72806 495.23053,147.77206 495.23053,149.82406 L 495.23053,162.74806 M 491.33240,151.22806 C 491.33240,147.34007 489.85640,145.03606 486.36440,145.03606 C 484.63641,145.03606 483.05240,145.64806 482.29640,146.18806 L 482.90840,148.13206 C 483.73640,147.55606 484.70841,147.23206 485.78840,147.23206 C 487.98440,147.23206 488.56040,148.85206 488.56040,151.19206 L 488.56040,151.73206 C 484.63641,151.76806 481.14440,153.67607 481.14440,158.06806 C 481.14440,161.09206 482.94441,163.03606 485.28440,163.03606 C 486.76040,163.03606 487.98441,162.24406 488.74040,160.91206 L 488.84840,160.91206 L 489.02840,162.74806 L 491.51240,162.74806 C 491.33240,161.63206 491.33240,160.12006 491.33240,158.78806 L 491.33240,151.22806 M 488.63240,157.24006 C 488.63240,157.56406 488.59640,157.92406 488.52440,158.24806 C 488.20040,159.97606 487.19240,160.87606 485.96840,160.87606 C 484.99641,160.87606 483.84440,160.08406 483.84440,157.78006 C 483.84440,154.00007 487.19241,153.71206 488.63240,153.71206 L 488.63240,157.24006 M 475.97447,162.74806 L 478.56647,162.74806 L 477.16247,138.48406 L 474.06647,138.48406 L 471.33047,149.57206 C 470.53847,152.84806 469.99847,155.15206 469.53047,157.92406 L 469.42247,157.92406 C 468.91847,155.15206 468.30647,152.77606 467.47847,149.57206 L 464.67047,138.48406 L 461.64647,138.48406 L 460.20647,162.74806 L 462.69047,162.74806 L 463.15847,152.48806 C 463.30247,149.03207 463.48247,145.64806 463.44647,142.80406 L 463.55447,142.80406 C 464.05847,145.61206 464.74247,148.60007 465.57047,151.69606 L 468.37847,162.60406 L 470.17847,162.60406 L 473.13047,151.22806 C 473.88647,148.42006 474.53447,145.50406 475.07447,142.80406 L 475.21847,142.80406 C 475.11047,145.54006 475.29047,149.10407 475.47047,152.30806 L 475.97447,162.74806 M 446.34253,142.37206 L 446.34253,145.32406 L 444.21853,145.32406 L 444.21853,147.41206 L 446.34253,147.41206 L 446.34253,157.52806 C 446.34253,159.94006 446.66653,161.12806 447.38653,161.92006 C 448.03453,162.67606 449.00653,162.96406 450.12253,162.96406 C 451.02253,162.96406 451.67053,162.85606 452.17453,162.67606 L 452.03053,160.55206 C 451.74253,160.62406 451.38253,160.66006 450.91453,160.66006 C 449.90653,160.66006 449.11453,160.08406 449.11453,157.78006 L 449.11453,147.41206 L 452.46253,147.41206 L 452.46253,145.32406 L 449.11453,145.32406 L 449.11453,141.25606 L 446.34253,142.37206 M 442.93209,160.19206 C 442.32009,160.51606 441.67209,160.66006 440.95209,160.66006 C 438.39609,160.66006 436.84809,158.21206 436.84809,154.14406 C 436.84809,150.72407 438.07209,147.41206 440.88009,147.41206 C 441.78009,147.41206 442.50009,147.70006 442.86009,147.88006 L 443.40009,145.64806 C 442.89609,145.32406 441.88809,145.07206 440.95209,145.07206 C 436.59610,145.07206 434.07609,149.14007 434.07609,154.14406 C 434.07609,159.90406 436.63210,162.96406 440.44809,162.96406 C 441.67209,162.96406 442.71609,162.67606 443.32809,162.31606 L 442.93209,160.19206 M 431.76197,154.28806 C 431.79797,153.85606 431.83397,153.38806 431.83397,152.70406 C 431.83397,148.78007 430.39396,145.03606 426.86597,145.03606 C 423.37397,145.03606 420.99797,148.56407 420.99797,154.21606 C 420.99797,159.58006 423.15797,162.96406 427.29797,162.96406 C 428.70197,162.96406 430.17797,162.67606 431.14997,162.13606 L 430.68197,160.12006 C 429.99797,160.48006 429.02597,160.76806 427.80197,160.76806 C 425.82197,160.76806 423.73397,159.65206 423.69797,154.28806 L 431.76197,154.28806 M 423.73397,152.23606 C 423.84197,149.86006 424.77797,147.19606 426.57797,147.19606 C 427.90997,147.19606 429.20597,148.74407 429.16997,152.23606 L 423.73397,152.23606 M 412.41197,169.94806 C 413.49197,169.91206 415.18397,169.37206 416.22797,168.32806 C 417.45197,166.99606 417.99197,165.30406 417.99197,161.63206 L 417.99197,145.32406 L 415.21997,145.32406 L 415.21997,160.87606 C 415.21997,164.15206 415.00397,165.48406 414.39197,166.42006 C 413.81597,167.24806 412.84397,167.57206 412.05197,167.75206 L 412.41197,169.94806 M 416.62397,142.62406 C 417.59597,142.62406 418.24397,141.90406 418.24397,140.82406 C 418.24397,139.74406 417.59597,139.02406 416.62397,139.02406 C 415.68797,139.02406 414.96797,139.74406 414.96797,140.82406 C 414.96797,141.90406 415.65197,142.62406 416.58797,142.62406 L 416.62397,142.62406 M 406.15472,163.03606 C 408.81871,163.03606 411.91472,160.76806 411.91472,154.00006 C 411.91472,147.91607 409.43071,145.03606 406.29872,145.03606 C 403.31072,145.03606 400.46672,147.70007 400.46672,154.07206 C 400.46672,160.19206 402.98672,163.03606 406.11872,163.03606 L 406.15472,163.03606 M 406.22672,160.84006 C 403.74272,160.84006 403.23872,156.91606 403.23872,154.03606 C 403.23872,151.33606 403.70672,147.23206 406.19072,147.23206 C 408.63871,147.23206 409.14272,151.33606 409.14272,154.03606 C 409.14272,156.77206 408.63871,160.84006 406.26272,160.84006 L 406.22672,160.84006 M 392.25703,162.74806 L 395.02903,162.74806 L 395.02903,153.10006 C 395.02903,152.48806 395.06503,151.98406 395.13703,151.51606 C 395.42503,149.50006 396.72103,147.88006 398.48503,147.88006 C 398.70103,147.88006 398.88103,147.88006 399.06103,147.91606 L 399.06103,145.07206 C 398.88103,145.03606 398.70103,145.03606 398.48503,145.03606 C 396.86503,145.03606 395.38903,146.40406 394.81303,148.06006 L 394.74103,148.06006 L 394.59703,145.32406 L 392.11303,145.32406 C 392.14903,146.62006 392.25703,148.34806 392.25703,149.82406 L 392.25703,162.74806 M 378.16528,162.74806 L 380.93728,162.74806 L 380.93728,152.81206 C 381.33328,152.84806 381.69328,152.84806 382.16128,152.84806 C 384.32128,152.84806 386.58928,151.94806 387.88528,150.14806 C 388.82128,148.92406 389.36128,147.41206 389.36128,145.18006 C 389.36128,143.05606 388.74928,141.29206 387.59728,140.14006 C 386.33728,138.91606 384.42928,138.37606 382.19728,138.37606 C 380.57728,138.37606 379.28128,138.55606 378.16528,138.84406 L 378.16528,162.74806 M 380.93728,140.82406 C 381.29728,140.71606 381.83728,140.64406 382.48528,140.64406 C 385.58128,140.64406 386.58928,142.87606 386.58928,145.36006 C 386.58928,148.78006 384.75328,150.58006 382.05328,150.58006 C 381.58528,150.58006 381.26128,150.54406 380.93728,150.50806 L 380.93728,140.82406 M 369.79584,162.74806 C 368.10384,160.44406 367.16784,159.22006 366.69984,158.53606 C 368.31984,156.08806 369.11184,152.59606 369.36384,149.71606 L 366.87984,149.71606 C 366.80784,151.37206 366.48384,154.46806 365.43984,156.70006 C 363.56784,154.18006 361.73184,151.33606 360.79584,149.82406 L 360.79584,149.68006 C 363.89184,147.52006 364.97184,145.57606 364.97184,143.16406 C 364.97184,139.81607 362.91984,138.19606 360.68784,138.19606 C 357.55585,138.19606 355.71984,140.86007 355.71984,143.81206 C 355.71984,145.82806 356.43984,147.62806 357.48384,149.24806 L 357.48384,149.35606 C 354.92784,151.30006 353.77584,153.67606 353.77584,156.34006 C 353.77584,159.72406 355.79185,163.03606 359.82384,163.03606 C 361.76784,163.03606 363.74784,162.13606 365.07984,160.48006 C 365.87184,161.63206 366.26784,162.10006 366.69984,162.74806 L 369.79584,162.74806 M 360.25584,160.84006 C 357.73584,160.84006 356.43984,158.50006 356.43984,156.05206 C 356.43984,153.82006 357.51984,152.12806 358.59984,151.08406 C 360.07584,153.35206 361.76784,155.90806 363.85584,158.75206 C 362.99184,160.08406 361.73184,160.84006 360.29184,160.84006 L 360.25584,160.84006 M 360.47184,140.24806 C 362.01984,140.24806 362.52384,141.83206 362.52384,143.30806 C 362.52384,145.18006 361.51584,146.69206 359.64384,148.09606 C 358.70784,146.62006 358.27584,145.32406 358.27584,143.66806 C 358.27584,141.76006 359.03184,140.24806 360.43584,140.24806 L 360.47184,140.24806 M 342.87290,162.74806 L 345.46490,162.74806 L 344.06090,138.48406 L 340.96490,138.48406 L 338.22890,149.57206 C 337.43691,152.84806 336.89690,155.15206 336.42890,157.92406 L 336.32090,157.92406 C 335.81691,155.15206 335.20490,152.77606 334.37690,149.57206 L 331.56890,138.48406 L 328.54490,138.48406 L 327.10490,162.74806 L 329.58890,162.74806 L 330.05690,152.48806 C 330.20090,149.03207 330.38090,145.64806 330.34490,142.80406 L 330.45290,142.80406 C 330.95690,145.61206 331.64091,148.60007 332.46890,151.69606 L 335.27690,162.60406 L 337.07690,162.60406 L 340.02890,151.22806 C 340.78490,148.42006 341.43291,145.50406 341.97290,142.80406 L 342.11690,142.80406 C 342.00890,145.54006 342.18890,149.10407 342.36890,152.30806 L 342.87290,162.74806 M 324.40322,160.01206 C 323.82722,160.26406 322.92722,160.51606 321.88322,160.51606 C 318.89522,160.51606 316.15922,158.10405 316.15922,150.65206 C 316.15922,143.23607 319.21922,140.71606 321.81122,140.71606 C 323.07122,140.71606 323.64722,140.96806 324.22322,141.22006 L 324.83522,138.88006 C 324.36722,138.55606 323.28722,138.26806 321.84722,138.26806 C 317.99522,138.26806 313.24322,141.32807 313.24322,150.94006 C 313.24322,159.18405 316.66322,162.96406 321.37922,162.96406 C 322.89122,162.96406 324.11522,162.71206 324.87122,162.31606 L 324.40322,160.01206 M 300.09140,161.88406 C 300.77540,162.42406 302.53941,162.96406 304.19540,162.96406 C 308.04740,162.96406 310.99940,160.33606 310.99940,156.16006 C 310.99940,153.46006 309.70340,151.22806 306.78740,149.17606 C 304.48341,147.55606 303.22340,146.58406 303.22340,144.17206 C 303.22340,142.51606 304.33941,140.71606 306.71540,140.71606 C 307.97540,140.71606 308.98341,141.11206 309.59540,141.54406 L 310.27940,139.16806 C 309.70341,138.77206 308.37140,138.26806 306.85940,138.26806 C 303.04341,138.26806 300.45140,140.96807 300.45140,144.64006 C 300.45140,147.77206 303.11541,150.04006 305.02340,151.37206 C 306.93140,152.81206 308.22740,154.18006 308.22740,156.41206 C 308.22740,158.86006 306.71540,160.51606 304.19540,160.51606 C 302.97141,160.51606 301.53140,160.04806 300.70340,159.54406 L 300.09140,161.88406 M 288.79865,137.83606 L 288.79865,147.08806 L 288.72665,147.08806 C 288.04266,145.61206 286.81865,145.03606 285.55865,145.03606 C 282.85866,145.03606 280.30265,147.91607 280.30265,154.10806 C 280.30265,159.86806 282.42666,163.03606 285.37865,163.03606 C 287.21465,163.03606 288.47466,161.81206 289.01465,160.58806 L 289.15865,160.58806 L 289.33865,162.74806 L 291.71465,162.74806 C 291.67865,161.74006 291.57065,159.76006 291.57065,158.57206 L 291.57065,137.83606 L 288.79865,137.83606 M 288.79865,156.59206 C 288.79865,157.02406 288.79865,157.42006 288.69065,157.74406 C 288.07866,160.26406 286.89065,160.73206 286.02665,160.73206 C 284.01066,160.73206 283.07465,157.78006 283.07465,154.10806 C 283.07465,150.61607 283.86666,147.41206 286.17065,147.41206 C 287.50265,147.41206 288.61865,148.99606 288.76265,150.79606 C 288.79865,151.19206 288.79865,151.58806 288.79865,151.94806 L 288.79865,156.59206 M 277.98853,154.28806 C 278.02453,153.85606 278.06053,153.38806 278.06053,152.70406 C 278.06053,148.78007 276.62053,145.03606 273.09253,145.03606 C 269.60053,145.03606 267.22453,148.56407 267.22453,154.21606 C 267.22453,159.58006 269.38453,162.96406 273.52453,162.96406 C 274.92853,162.96406 276.40453,162.67606 277.37653,162.13606 L 276.90853,160.12006 C 276.22453,160.48006 275.25253,160.76806 274.02853,160.76806 C 272.04853,160.76806 269.96053,159.65206 269.92453,154.28806 L 277.98853,154.28806 M 269.96053,152.23606 C 270.06853,149.86006 271.00453,147.19606 272.80453,147.19606 C 274.13653,147.19606 275.43253,148.74407 275.39653,152.23606 L 269.96053,152.23606 M 259.38159,142.37206 L 259.38159,145.32406 L 257.25759,145.32406 L 257.25759,147.41206 L 259.38159,147.41206 L 259.38159,157.52806 C 259.38159,159.94006 259.70559,161.12806 260.42559,161.92006 C 261.07359,162.67606 262.04559,162.96406 263.16159,162.96406 C 264.06159,162.96406 264.70959,162.85606 265.21359,162.67606 L 265.06959,160.55206 C 264.78159,160.62406 264.42159,160.66006 263.95359,160.66006 C 262.94559,160.66006 262.15359,160.08406 262.15359,157.78006 L 262.15359,147.41206 L 265.50159,147.41206 L 265.50159,145.32406 L 262.15359,145.32406 L 262.15359,141.25606 L 259.38159,142.37206 M 254.87147,151.22806 C 254.87147,147.34007 253.39546,145.03606 249.90347,145.03606 C 248.17547,145.03606 246.59147,145.64806 245.83547,146.18806 L 246.44747,148.13206 C 247.27547,147.55606 248.24747,147.23206 249.32747,147.23206 C 251.52346,147.23206 252.09947,148.85206 252.09947,151.19206 L 252.09947,151.73206 C 248.17547,151.76806 244.68347,153.67607 244.68347,158.06806 C 244.68347,161.09206 246.48347,163.03606 248.82347,163.03606 C 250.29947,163.03606 251.52347,162.24406 252.27947,160.91206 L 252.38747,160.91206 L 252.56747,162.74806 L 255.05147,162.74806 C 254.87147,161.63206 254.87147,160.12006 254.87147,158.78806 L 254.87147,151.22806 M 252.17147,157.24006 C 252.17147,157.56406 252.13547,157.92406 252.06347,158.24806 C 251.73947,159.97606 250.73147,160.87606 249.50747,160.87606 C 248.53547,160.87606 247.38347,160.08406 247.38347,157.78006 C 247.38347,154.00007 250.73147,153.71206 252.17147,153.71206 L 252.17147,157.24006 M 236.72578,162.74806 L 239.49778,162.74806 L 239.49778,153.10006 C 239.49778,152.48806 239.53378,151.98406 239.60578,151.51606 C 239.89378,149.50006 241.18978,147.88006 242.95378,147.88006 C 243.16978,147.88006 243.34978,147.88006 243.52978,147.91606 L 243.52978,145.07206 C 243.34978,145.03606 243.16978,145.03606 242.95378,145.03606 C 241.33378,145.03606 239.85778,146.40406 239.28178,148.06006 L 239.20978,148.06006 L 239.06578,145.32406 L 236.58178,145.32406 C 236.61778,146.62006 236.72578,148.34806 236.72578,149.82406 L 236.72578,162.74806 M 232.93003,150.76006 C 232.93003,148.06006 233.03803,146.51206 233.07403,145.32406 L 230.59003,145.32406 L 230.44603,147.26806 L 230.37403,147.26806 C 229.83403,146.26006 228.97003,145.03606 227.13403,145.03606 C 224.54203,145.03606 221.66203,147.66407 221.66203,154.10806 C 221.66203,159.22006 223.67803,162.71206 226.77403,162.71206 C 228.21403,162.71206 229.51003,161.95606 230.08603,160.58806 L 230.15803,160.58806 L 230.15803,162.35206 C 230.15803,166.31206 228.79003,167.68006 226.59403,167.68006 C 225.22603,167.68006 224.07403,167.28406 223.39003,166.92406 L 222.74203,169.08406 C 223.64203,169.58806 225.08203,169.94806 226.55803,169.94806 C 228.50203,169.94806 230.12203,169.26406 231.20203,168.11206 C 232.35403,166.81606 232.93003,165.08806 232.93003,160.51606 L 232.93003,150.76006 M 230.15803,156.37606 C 230.15803,156.88006 230.15803,157.42006 229.97803,157.96006 C 229.43803,160.04806 228.35803,160.44406 227.49403,160.44406 C 225.83803,160.44406 224.43403,158.42806 224.43403,153.96406 C 224.43403,150.11207 225.51403,147.41206 227.49403,147.41206 C 229.07803,147.41206 229.72603,148.88806 230.01403,150.04006 C 230.12203,150.43606 230.15803,150.86806 230.15803,151.33606 L 230.15803,156.37606 M 219.34790,154.28806 C 219.38390,153.85606 219.41990,153.38806 219.41990,152.70406 C 219.41990,148.78007 217.97990,145.03606 214.45190,145.03606 C 210.95991,145.03606 208.58390,148.56407 208.58390,154.21606 C 208.58390,159.58006 210.74391,162.96406 214.88390,162.96406 C 216.28790,162.96406 217.76391,162.67606 218.73590,162.13606 L 218.26790,160.12006 C 217.58391,160.48006 216.61190,160.76806 215.38790,160.76806 C 213.40791,160.76806 211.31990,159.65206 211.28390,154.28806 L 219.34790,154.28806 M 211.31990,152.23606 C 211.42790,149.86006 212.36391,147.19606 214.16390,147.19606 C 215.49590,147.19606 216.79190,148.74407 216.75590,152.23606 L 211.31990,152.23606 M 200.74097,142.37206 L 200.74097,145.32406 L 198.61697,145.32406 L 198.61697,147.41206 L 200.74097,147.41206 L 200.74097,157.52806 C 200.74097,159.94006 201.06497,161.12806 201.78497,161.92006 C 202.43297,162.67606 203.40497,162.96406 204.52097,162.96406 C 205.42097,162.96406 206.06897,162.85606 206.57297,162.67606 L 206.42897,160.55206 C 206.14097,160.62406 205.78097,160.66006 205.31297,160.66006 C 204.30497,160.66006 203.51297,160.08406 203.51297,157.78006 L 203.51297,147.41206 L 206.86097,147.41206 L 206.86097,145.32406 L 203.51297,145.32406 L 203.51297,141.25606 L 200.74097,142.37206 M 185.57428,162.74806 L 188.34628,162.74806 L 188.34628,151.76806 C 188.34628,151.15606 188.38228,150.61606 188.49028,150.22006 C 188.81428,148.34806 189.93028,147.37606 191.08228,147.37606 C 193.09828,147.37606 193.49428,149.42806 193.49428,151.51606 L 193.49428,162.74806 L 196.26628,162.74806 L 196.26628,151.04806 C 196.26628,146.80007 194.46628,145.03606 192.05428,145.03606 C 190.21828,145.03606 188.81428,146.00806 188.05828,147.41206 L 187.98628,147.41206 L 187.84228,145.32406 L 185.43028,145.32406 C 185.46628,146.72806 185.57428,147.77206 185.57428,149.82406 L 185.57428,162.74806 M 178.61840,138.48406 L 178.61840,162.74806 L 181.39040,162.74806 L 181.39040,138.48406 L 178.61840,138.48406"
     id="text4421" />
</svg>
